<?xml version="1.0" encoding="utf-8"?>
<!-- Generator: Adobe Illustrator 21.1.0, SVG Export Plug-In . SVG Version: 6.00 Build 0)  -->
<svg version="1.1" id="Layer_1" xmlns="http://www.w3.org/2000/svg" xmlns:xlink="http://www.w3.org/1999/xlink" x="0px" y="0px"
	 viewBox="0 0 1080 1080" style="enable-background:new 0 0 1080 1080;" xml:space="preserve">
<style type="text/css">
	.st0{fill:#EF5865;}
	.st1{font-family:'Teko-Bold';}
	.st2{font-size:1236.8604px;}
	.st3{letter-spacing:97.9;}
	.st4{fill:#FFFFFF;}
	.st5{fill:#EF5865;stroke:#EF5865;stroke-width:8.0452;stroke-miterlimit:10;}
	.st6{fill:#EF5865;stroke:#EF5865;stroke-width:5.4282;stroke-miterlimit:10;}
	.st7{fill:#EF5865;stroke:#EF5865;stroke-width:5.4254;stroke-miterlimit:10;}
	.st8{fill:none;stroke:#EF5865;stroke-width:22.2653;stroke-miterlimit:10;}
	.st9{fill:none;stroke:#EF5865;stroke-width:8.7955;stroke-linecap:round;stroke-miterlimit:10;}
</style>
<g>
	<g>
		<text transform="matrix(0.8886 0 0 0.65 247.242 864.4368)" class="st0 st1 st2 st3">U</text>
		<path class="st4" d="M715.9,782.6H353.5c-16.1,0-29.1-13.1-29.1-29.1V347.5H745v405.9C745,769.5,732,782.6,715.9,782.6z"/>
		<path class="st5" d="M703,475.6H424.7c-5.6,0-10.3-4.6-10.3-10.3v-90.8c0-5.6,4.6-10.3,10.3-10.3H703c5.6,0,10.3,4.6,10.3,10.3
			v90.8C713.3,470.9,708.7,475.6,703,475.6z"/>
		<g>
			<path class="st6" d="M645.3,613.5H366.7c-5.7,0-10.3-4.6-10.3-10.3v-90.8c0-5.7,4.6-10.3,10.3-10.3h278.6
				c5.7,0,10.3,4.6,10.3,10.3v90.8C655.6,608.9,650.9,613.5,645.3,613.5z"/>
		</g>
		<g>
			<path class="st7" d="M703,751.5H424.7c-5.6,0-10.3-4.6-10.3-10.3v-90.8c0-5.6,4.6-10.3,10.3-10.3H703c5.6,0,10.3,4.6,10.3,10.3
				v90.8C713.3,746.9,708.7,751.5,703,751.5z"/>
		</g>
		<path class="st0" d="M776.8,328.7H291.1v-2.3c0-17.2,13.9-31.1,31.1-31.1h423.5c17.2,0,31.1,13.9,31.1,31.1V328.7z"/>
		<path class="st8" d="M655.6,312H414.4v-85.5c0-4.9,3.9-8.8,8.8-8.8h223.5c4.9,0,8.8,3.9,8.8,8.8V312z"/>
	</g>
	<polyline class="st9" points="690.1,466.9 714.2,488.3 713.3,454.3 	"/>
	<polyline class="st9" points="688.2,738.3 712.3,759.7 711.4,725.7 	"/>
	<polyline class="st9" points="381.7,604 357.6,625.4 358.5,591.4 	"/>
</g>
</svg>
