<?xml version="1.0" encoding="utf-8"?>
<!-- Generator: Adobe Illustrator 21.1.0, SVG Export Plug-In . SVG Version: 6.00 Build 0)  -->
<svg version="1.1" id="Layer_2" xmlns="http://www.w3.org/2000/svg" xmlns:xlink="http://www.w3.org/1999/xlink" x="0px" y="0px"
	 viewBox="0 0 1800 1200" style="enable-background:new 0 0 1800 1200;" xml:space="preserve">
<style type="text/css">
	.st0{fill:#EF5865;}
	.st1{font-family:'FjallaOne-Regular';}
	.st2{font-size:359.9694px;}
	.st3{letter-spacing:-6;}
	.st4{fill:#FFFFFF;}
	.st5{font-family:'Teko-Bold';}
	.st6{font-size:503.9571px;}
	.st7{letter-spacing:-8;}
	.st8{letter-spacing:-27;}
	.st9{font-family:'FrancoisOne-Regular';}
	.st10{font-size:370.7685px;}
	.st11{letter-spacing:-20;}
	.st12{font-size:506.2044px;}
	.st13{letter-spacing:39.4;}
	.st14{fill:#EF5865;stroke:#EF5865;stroke-width:3.3031;stroke-miterlimit:10;}
	.st15{fill:#EF5865;stroke:#EF5865;stroke-width:2.2275;stroke-miterlimit:10;}
	.st16{fill:none;stroke:#EF5865;stroke-width:9.0479;stroke-miterlimit:10;}
	.st17{fill:none;stroke:#EF5865;stroke-width:3.5997;stroke-linecap:round;stroke-miterlimit:10;}
</style>
<g>
	<g>
		<text transform="matrix(1 0 0 0.65 184.356 665.6657)"><tspan x="0" y="0" class="st0 st1 st2 st3">DABBAG</tspan><tspan x="1041.8" y="0" class="st4 st5 st6 st7">.</tspan><tspan x="1160.2" y="0" class="st4 st5 st6 st8">.</tspan><tspan x="1260" y="0" class="st0 st9 st10 st11">L</tspan></text>
		<g>
			<g>
				<text transform="matrix(0.8886 0 0 0.65 1228.5762 666.5319)" class="st0 st5 st12 st13">U</text>
				<path class="st4" d="M1420.4,633.1h-148.6c-6.6,0-11.9-5.3-11.9-11.9V455h172.5v166.2C1432.4,627.8,1427,633.1,1420.4,633.1z"/>
				<path class="st14" d="M1415.3,507.1h-113.7c-2.3,0-4.2-1.9-4.2-4.2v-37.5c0-2.3,1.9-4.2,4.2-4.2h113.7c2.3,0,4.2,1.9,4.2,4.2
					v37.5C1419.5,505.2,1417.6,507.1,1415.3,507.1z"/>
				<g>
					<path class="st15" d="M1391.2,563.7h-113.7c-2.3,0-4.2-1.9-4.2-4.2v-37.5c0-2.3,1.9-4.2,4.2-4.2h113.7c2.3,0,4.2,1.9,4.2,4.2
						v37.5C1395.4,561.8,1393.5,563.7,1391.2,563.7z"/>
				</g>
				<g>
					<path class="st15" d="M1414.7,620.8H1301c-2.3,0-4.2-1.9-4.2-4.2v-37.5c0-2.3,1.9-4.2,4.2-4.2h113.7c2.3,0,4.2,1.9,4.2,4.2
						v37.5C1418.9,618.9,1417,620.8,1414.7,620.8z"/>
				</g>
				<path class="st0" d="M1444.7,447.2h-198.3v-0.8c0-7,5.6-12.6,12.6-12.6h173.1c7,0,12.6,5.6,12.6,12.6V447.2z"/>
				<path class="st16" d="M1395.4,440.4h-98.6v-34.5c0-2,1.6-3.6,3.6-3.6h91.4c2,0,3.6,1.6,3.6,3.6V440.4z"/>
			</g>
			<polyline class="st17" points="1409.8,503.8 1419.7,512.6 1419.3,498.7 			"/>
			<polyline class="st17" points="1409,614.9 1418.9,623.7 1418.5,609.8 			"/>
			<polyline class="st17" points="1283.6,559.9 1273.7,568.7 1274.1,554.8 			"/>
		</g>
	</g>
</g>
</svg>
