<?xml version="1.0" encoding="utf-8"?>
<!-- Generator: Adobe Illustrator 21.1.0, SVG Export Plug-In . SVG Version: 6.00 Build 0)  -->
<svg version="1.1" id="Layer_1" xmlns="http://www.w3.org/2000/svg" xmlns:xlink="http://www.w3.org/1999/xlink" x="0px" y="0px"
	 viewBox="0 0 1080 1080" style="enable-background:new 0 0 1080 1080;" xml:space="preserve">
<style type="text/css">
	.st0{fill:#EF5865;stroke:#EF5865;stroke-width:8.0452;stroke-miterlimit:10;}
	.st1{fill:#EF5865;stroke:#EF5865;stroke-width:5.4282;stroke-miterlimit:10;}
	.st2{fill:#EF5865;stroke:#EF5865;stroke-width:5.4254;stroke-miterlimit:10;}
	.st3{fill:#EF5865;}
	.st4{fill:none;stroke:#EF5865;stroke-width:22.2653;stroke-miterlimit:10;}
	.st5{fill:none;stroke:#EF5865;stroke-width:8.7955;stroke-linecap:round;stroke-miterlimit:10;}
	.st6{fill:#F05965;}
</style>
<g>
	<g>
		<path class="st0" d="M703,475.6H424.7c-5.6,0-10.3-4.6-10.3-10.3v-90.8c0-5.6,4.6-10.3,10.3-10.3H703c5.6,0,10.3,4.6,10.3,10.3
			v90.8C713.3,470.9,708.7,475.6,703,475.6z"/>
		<g>
			<path class="st1" d="M645.3,613.5H366.7c-5.7,0-10.3-4.6-10.3-10.3v-90.8c0-5.7,4.6-10.3,10.3-10.3h278.6
				c5.7,0,10.3,4.6,10.3,10.3v90.8C655.6,608.9,650.9,613.5,645.3,613.5z"/>
		</g>
		<g>
			<path class="st2" d="M703,751.5H424.7c-5.6,0-10.3-4.6-10.3-10.3v-90.8c0-5.6,4.6-10.3,10.3-10.3H703c5.6,0,10.3,4.6,10.3,10.3
				v90.8C713.3,746.9,708.7,751.5,703,751.5z"/>
		</g>
		<path class="st3" d="M776.8,328.7H291.1v-2.3c0-17.2,13.9-31.1,31.1-31.1h423.5c17.2,0,31.1,13.9,31.1,31.1V328.7z"/>
		<path class="st4" d="M655.6,312H414.4v-85.5c0-4.9,3.9-8.8,8.8-8.8h223.5c4.9,0,8.8,3.9,8.8,8.8V312z"/>
	</g>
	<polyline class="st5" points="690.1,466.9 714.2,488.3 713.3,454.3 	"/>
	<polyline class="st5" points="688.2,738.3 712.3,759.7 711.4,725.7 	"/>
	<polyline class="st5" points="381.7,604 357.6,625.4 358.5,591.4 	"/>
</g>
<path class="st6" d="M291.1,347.5h33.2v405.9c0,4.2,1,7.4,1.9,9.8c2.7,6.7,7.8,11.1,12.9,14.1c6.2,3.6,13.2,5.3,20.3,5.3h350.7
	c7,0,13.9-1.7,19.9-5.2c4.8-2.8,9.7-7,12.6-13.4c1.7-3.8,2.3-7.5,2.4-10.6c0-135.3,0-270.6,0-405.9h31.8v426.3
	c0,7.2-1.3,14.3-3.9,21c-2.1,5.3-4.5,9.9-6.9,13.9c-33.4,55-113.6,55.8-124.9,55.7c-71.4,0-142.8,0-214.3,0
	c-12.1-0.2-96.7-2.9-127.3-59.3c0-0.1-0.1-0.1-0.1-0.2c-5.6-10.3-8.3-21.8-8.3-33.5V347.5z"/>
</svg>
