<?xml version="1.0" standalone="no"?>
<!DOCTYPE svg PUBLIC "-//W3C//DTD SVG 20010904//EN"
 "http://www.w3.org/TR/2001/REC-SVG-20010904/DTD/svg10.dtd">
<svg version="1.0" xmlns="http://www.w3.org/2000/svg"
 width="1500.000000pt" height="1500.000000pt" viewBox="0 0 1500.000000 1500.000000"
 preserveAspectRatio="xMidYMid meet">

<g transform="translate(0.000000,1500.000000) scale(0.100000,-0.100000)"
fill="#000000" stroke="none">
<path d="M4250 12760 c-52 -3 -124 -14 -160 -24 -36 -10 -90 -25 -120 -33 -30
-9 -69 -24 -86 -34 -17 -11 -41 -19 -52 -19 -25 0 -103 -41 -109 -57 -3 -7
-16 -13 -30 -13 -26 0 -113 -46 -113 -60 0 -5 -10 -12 -22 -16 -25 -7 -288
-265 -288 -282 0 -6 -16 -28 -35 -49 -19 -21 -35 -45 -35 -54 0 -9 -8 -27 -18
-40 -42 -55 -90 -148 -106 -204 -10 -33 -27 -89 -39 -125 l-22 -65 -3 -3080
c-1 -1845 1 -3096 7 -3120 30 -131 54 -201 81 -238 16 -22 30 -53 30 -68 0
-16 15 -47 35 -73 19 -26 35 -52 35 -59 0 -6 14 -32 30 -57 16 -25 35 -54 42
-65 40 -64 341 -335 372 -335 15 0 83 -35 105 -53 9 -8 45 -24 81 -37 36 -13
70 -27 76 -32 6 -4 47 -15 90 -23 151 -29 169 -33 197 -44 20 -8 265 -11 787
-11 733 0 760 1 804 20 58 24 110 79 143 148 25 53 25 54 7 100 -19 53 -44 91
-58 92 -6 0 -19 9 -31 20 -22 20 -33 21 -791 23 -779 2 -773 2 -899 37 -16 5
-68 22 -115 39 -47 17 -91 31 -98 31 -7 0 -35 18 -61 40 -26 22 -54 40 -63 40
-17 0 -90 62 -154 130 -23 25 -60 65 -83 90 -22 24 -41 51 -41 59 0 22 -42 80
-62 87 -14 4 -18 16 -18 48 0 24 -8 61 -17 82 -17 37 -18 206 -18 3094 l0
3055 24 70 c25 73 44 114 74 154 9 13 17 31 17 40 0 15 60 83 185 211 30 30
71 64 92 74 21 11 52 30 68 41 17 12 53 30 80 40 28 10 61 27 74 37 12 9 39
20 60 24 20 3 58 13 84 21 38 13 72 14 165 8 64 -4 133 -6 152 -5 19 1 1288 4
2820 6 l2785 4 90 -21 c50 -12 97 -28 105 -35 8 -7 41 -22 72 -34 31 -11 67
-29 80 -38 13 -9 45 -28 72 -42 60 -31 250 -230 285 -298 13 -26 34 -60 47
-75 13 -16 24 -39 24 -52 0 -13 5 -36 11 -52 38 -98 39 -112 38 -3123 0 -3005
0 -3036 -38 -3133 -6 -16 -11 -39 -11 -51 0 -13 -14 -41 -31 -62 -17 -22 -40
-58 -51 -81 -23 -49 -239 -273 -263 -273 -15 0 -55 -24 -97 -59 -27 -21 -232
-89 -338 -111 -90 -18 -139 -19 -870 -19 -427 0 -783 -3 -793 -7 -9 -3 -17
-12 -17 -20 0 -8 -9 -14 -20 -14 -27 0 -84 -52 -116 -108 -15 -26 -35 -56 -44
-67 -10 -11 -25 -43 -34 -72 -10 -28 -25 -62 -35 -75 -17 -23 -51 -90 -51
-102 0 -3 -14 -25 -30 -48 -17 -23 -36 -61 -42 -85 -6 -24 -14 -43 -18 -43
-13 0 -47 -62 -55 -100 -4 -19 -18 -47 -30 -62 -13 -15 -31 -49 -41 -75 -9
-26 -25 -57 -34 -68 -27 -31 -50 -81 -50 -110 0 -14 -4 -25 -9 -25 -17 0 -53
-60 -63 -103 -5 -23 -18 -50 -30 -61 -11 -10 -31 -42 -44 -70 -13 -28 -42 -78
-64 -111 -22 -33 -49 -80 -60 -105 -11 -25 -29 -61 -40 -80 -10 -19 -28 -55
-40 -80 -11 -25 -23 -50 -27 -56 -45 -67 -80 -123 -89 -139 -19 -34 -51 -31
-70 7 -9 18 -32 46 -50 61 -19 16 -34 34 -34 41 0 6 -32 54 -71 106 -39 52
-79 113 -89 135 -9 22 -29 51 -43 65 -14 14 -30 45 -36 68 -7 24 -20 51 -29
60 -35 36 -101 131 -116 167 -9 20 -27 51 -41 69 -14 17 -52 65 -85 107 -46
60 -71 83 -116 105 -31 16 -59 36 -61 46 -6 20 -33 28 -105 28 -47 0 -60 -4
-70 -20 -7 -11 -20 -20 -29 -20 -19 0 -52 -43 -69 -92 -11 -31 -11 -44 0 -80
18 -56 48 -118 70 -143 28 -32 84 -116 107 -162 20 -38 74 -117 105 -153 8 -9
27 -38 43 -65 16 -28 49 -79 73 -115 25 -36 56 -85 70 -110 13 -25 35 -56 47
-70 12 -14 34 -44 48 -67 15 -23 31 -44 37 -48 5 -3 10 -14 10 -23 0 -9 34
-62 75 -117 41 -55 75 -105 75 -112 0 -6 15 -31 33 -55 17 -24 44 -61 58 -83
34 -52 105 -125 122 -125 8 0 19 -11 25 -25 7 -14 20 -25 31 -25 10 0 25 -9
32 -20 21 -30 72 -37 97 -12 11 11 29 23 39 26 31 10 77 56 119 120 62 94 71
111 78 143 4 17 16 39 28 49 27 25 48 67 48 97 0 13 10 35 21 48 26 29 58 97
59 122 0 9 4 17 10 17 15 0 60 84 60 111 0 15 13 38 34 58 25 24 35 44 38 75
4 28 15 52 37 76 17 19 35 46 39 60 4 14 32 63 63 110 30 47 65 110 78 140 13
30 29 62 35 70 7 8 23 40 35 70 13 30 31 64 40 75 21 24 51 87 51 108 0 8 7
20 16 28 18 15 54 82 54 102 0 7 11 28 25 47 13 18 32 54 42 79 9 25 32 67 50
92 18 26 33 56 33 67 0 24 94 153 119 164 9 4 340 7 736 7 760 1 744 0 909 47
26 8 61 14 78 14 16 0 46 9 66 19 20 10 56 24 78 30 23 6 56 21 75 34 19 12
54 31 79 42 25 10 78 43 118 73 79 58 282 254 282 272 0 7 16 30 35 53 19 22
35 45 35 50 0 9 46 85 91 149 30 43 76 176 88 258 9 56 11 862 9 3195 l-3
3120 -31 97 c-18 54 -44 112 -58 129 -14 17 -26 37 -26 45 0 20 -27 72 -57
109 -13 17 -27 35 -31 40 -57 77 -94 118 -196 217 -67 65 -125 118 -129 118
-4 0 -30 18 -58 40 -37 29 -60 40 -85 40 -19 0 -34 4 -34 10 0 16 -78 60 -108
60 -15 0 -39 8 -52 17 -14 10 -70 33 -125 51 -82 27 -124 35 -235 42 -149 10
-5698 10 -5850 0z"/>
<path d="M7270 10820 c-104 -37 -201 -91 -271 -150 -20 -16 -39 -30 -43 -30
-3 0 -37 -22 -76 -50 -39 -27 -73 -50 -76 -50 -3 0 -20 -11 -38 -25 -18 -14
-35 -25 -38 -25 -10 0 -125 -80 -138 -95 -7 -8 -16 -15 -21 -15 -5 0 -55 -30
-112 -67 -56 -38 -110 -72 -119 -78 -10 -5 -82 -54 -161 -107 -79 -54 -148
-98 -153 -98 -6 0 -21 -11 -34 -25 -13 -14 -29 -25 -37 -25 -7 0 -13 -3 -13
-7 0 -5 -23 -21 -51 -38 -28 -16 -77 -49 -110 -72 -32 -24 -64 -43 -69 -43 -6
0 -10 -3 -10 -8 0 -4 -17 -16 -37 -27 -54 -29 -149 -93 -163 -110 -7 -8 -19
-15 -26 -15 -8 0 -14 -4 -14 -9 0 -5 -8 -12 -17 -15 -25 -9 -49 -24 -125 -78
-37 -27 -70 -48 -73 -48 -4 0 -23 -13 -42 -30 -18 -16 -38 -30 -43 -30 -6 0
-41 -22 -80 -50 -39 -27 -72 -50 -74 -50 -2 0 -31 -18 -64 -40 -33 -22 -63
-40 -67 -40 -4 0 -24 -13 -45 -30 -21 -16 -41 -30 -45 -30 -4 0 -47 -27 -97
-61 -49 -33 -97 -63 -106 -67 -9 -3 -41 -23 -71 -44 -30 -21 -59 -38 -64 -38
-5 0 -26 -13 -46 -28 -39 -31 -158 -102 -169 -102 -18 0 -172 -167 -172 -186
0 -11 -5 -25 -11 -31 -17 -17 -23 -144 -10 -204 20 -88 32 -112 82 -164 40
-43 48 -57 52 -100 3 -27 14 -90 26 -140 11 -49 21 -103 21 -120 0 -16 7 -52
15 -79 8 -27 15 -66 15 -87 0 -21 4 -40 9 -43 5 -3 11 -20 14 -38 3 -18 13
-76 21 -128 8 -52 19 -115 24 -140 5 -25 15 -74 21 -110 24 -129 42 -193 68
-233 27 -45 212 -237 227 -237 5 0 23 -10 40 -23 17 -12 58 -36 91 -51 33 -16
74 -40 91 -52 17 -13 44 -26 60 -30 16 -4 43 -16 59 -26 17 -10 37 -21 45 -24
32 -13 77 -33 135 -59 33 -15 69 -30 80 -35 11 -4 36 -15 57 -24 20 -9 43 -16
51 -16 9 0 18 -4 21 -9 4 -5 32 -17 64 -27 31 -9 62 -21 67 -25 6 -4 35 -17
65 -28 61 -24 70 -28 153 -65 32 -14 61 -26 64 -26 4 0 34 -13 67 -29 110 -53
176 -81 189 -81 7 0 17 -4 23 -9 5 -4 61 -30 124 -56 63 -26 120 -51 125 -55
6 -3 26 -13 45 -20 41 -15 105 -43 176 -76 28 -13 56 -24 62 -24 6 0 33 -12
59 -26 26 -14 102 -44 168 -67 119 -41 121 -41 270 -42 152 0 165 2 247 46 10
5 23 9 29 9 19 0 255 118 310 156 28 19 52 34 54 34 2 0 29 18 61 40 66 45
160 109 185 125 9 5 52 37 95 70 148 112 325 235 339 235 4 0 24 14 45 30 21
17 42 30 47 30 11 0 80 73 110 116 25 37 63 118 63 136 0 8 4 18 9 23 17 17
34 185 40 390 4 120 11 208 17 219 7 12 23 19 41 19 29 0 123 -51 194 -105 20
-15 41 -28 46 -28 5 0 34 -17 65 -37 140 -96 164 -107 233 -107 61 0 108 16
170 58 42 30 68 45 85 53 8 3 28 16 45 27 16 12 46 29 65 40 19 10 53 31 75
48 22 16 65 47 95 70 83 61 236 223 277 293 70 120 92 220 104 470 4 88 12
203 17 255 6 52 11 139 11 192 1 53 5 108 11 122 5 14 10 113 11 218 1 131 6
207 15 236 8 23 14 84 14 134 0 81 -3 98 -30 152 -47 97 -131 166 -265 217
-27 11 -72 30 -100 43 -27 14 -68 32 -90 41 -67 28 -78 32 -146 64 -36 17 -70
31 -75 31 -16 0 -64 24 -64 33 0 4 -5 7 -11 7 -6 0 -27 7 -47 16 -21 9 -62 26
-92 39 -30 13 -95 42 -143 64 -49 23 -91 41 -94 41 -7 0 -75 30 -93 41 -8 5
-22 12 -30 15 -8 3 -39 17 -68 30 -29 13 -56 24 -60 24 -6 0 -32 12 -173 79
-36 17 -70 31 -77 31 -6 0 -31 11 -56 24 -25 13 -67 32 -93 42 -27 10 -60 25
-74 35 -14 10 -38 21 -53 25 -15 3 -50 17 -77 30 -27 13 -52 24 -56 24 -4 0
-43 18 -88 39 -123 60 -194 91 -208 91 -7 0 -21 6 -32 13 -11 8 -42 22 -70 32
-27 10 -54 22 -60 26 -9 6 -44 15 -150 39 -22 5 -101 9 -175 9 -109 0 -146 -4
-190 -19z m388 -36 c37 -9 81 -23 97 -30 17 -7 62 -25 100 -40 39 -16 99 -43
135 -62 36 -19 87 -43 114 -53 27 -11 81 -35 120 -53 39 -19 78 -37 86 -40 8
-3 22 -10 30 -15 30 -18 187 -91 196 -91 5 0 45 -17 89 -39 105 -51 220 -105
270 -126 22 -10 81 -37 130 -60 161 -76 202 -95 209 -95 5 0 20 -8 34 -19 15
-10 38 -22 52 -25 14 -4 71 -30 127 -57 56 -27 105 -49 110 -49 4 0 53 -22
108 -49 140 -68 190 -91 199 -91 4 0 20 -9 35 -19 15 -11 40 -23 57 -27 50
-13 157 -73 197 -112 50 -48 67 -109 67 -234 0 -133 -23 -184 -130 -290 -44
-43 -84 -78 -90 -78 -6 0 -41 -22 -79 -50 -38 -27 -72 -50 -76 -50 -4 0 -28
-17 -54 -38 -25 -21 -53 -42 -61 -45 -14 -6 -77 -49 -197 -134 -29 -21 -53
-40 -53 -43 0 -3 -14 -11 -30 -19 -17 -7 -53 -31 -80 -52 -27 -21 -52 -39 -54
-39 -5 0 -152 -99 -206 -139 -19 -14 -43 -30 -52 -36 -9 -5 -44 -29 -78 -52
-34 -24 -64 -43 -67 -43 -2 0 -26 -18 -52 -40 -26 -22 -51 -40 -55 -40 -4 0
-41 -25 -81 -55 -41 -30 -78 -55 -81 -55 -4 0 -25 -15 -48 -33 -23 -19 -48
-36 -56 -40 -16 -7 -120 -78 -189 -129 -24 -18 -52 -37 -61 -43 -50 -29 -127
-84 -139 -98 -7 -10 -17 -17 -21 -17 -11 0 -126 -78 -140 -95 -7 -8 -19 -15
-26 -15 -8 0 -14 -4 -14 -8 0 -5 -10 -14 -22 -21 -25 -12 -43 -24 -137 -88
-34 -24 -65 -43 -67 -43 -3 0 -27 -18 -53 -40 -26 -22 -52 -40 -58 -40 -6 0
-16 -6 -22 -14 -25 -30 -190 -97 -291 -118 -126 -26 -173 -31 -265 -32 -186 0
-335 34 -590 136 -143 57 -155 62 -155 70 0 3 -14 9 -31 13 -17 4 -42 13 -57
21 -15 8 -32 14 -39 14 -7 0 -32 11 -57 25 -25 14 -52 25 -61 25 -8 0 -23 4
-33 9 -33 18 -90 41 -100 41 -6 0 -23 6 -39 14 -35 18 -76 35 -173 72 -41 15
-79 31 -85 35 -5 4 -41 19 -80 34 -71 28 -109 43 -169 70 -19 8 -41 15 -49 15
-9 0 -18 4 -21 9 -3 5 -18 12 -33 15 -16 4 -41 13 -58 21 -68 32 -144 64 -215
90 -41 15 -98 38 -126 51 -28 13 -56 24 -62 24 -6 0 -23 6 -39 14 -40 21 -108
49 -183 76 -36 13 -74 29 -85 36 -11 6 -38 17 -60 24 -43 13 -70 23 -156 64
-31 14 -63 26 -71 26 -18 0 -60 46 -76 83 -17 39 -16 300 0 330 17 29 90 107
101 107 4 0 23 11 41 25 18 14 36 25 39 25 3 0 35 20 71 45 37 25 69 45 72 45
3 0 20 11 38 25 18 14 36 25 39 25 4 0 37 22 75 48 37 27 72 51 77 53 10 4
138 87 187 120 15 11 30 19 33 19 3 0 36 23 75 50 39 28 73 50 76 50 8 0 88
63 92 72 2 5 8 8 14 8 5 0 24 10 41 23 44 30 68 45 92 56 12 5 27 16 34 25 8
9 50 38 95 66 45 27 90 58 100 69 11 12 23 21 28 21 5 0 24 11 41 24 18 13 48
32 67 43 20 10 56 34 80 54 25 20 50 38 55 40 6 2 57 36 113 74 57 39 111 75
120 80 9 6 64 42 120 80 57 39 111 75 120 80 9 6 49 34 89 63 40 28 75 52 79
52 3 0 20 11 38 25 18 14 37 25 43 25 5 0 20 11 33 25 13 14 28 25 33 25 5 0
26 14 47 30 21 17 41 30 44 30 3 0 37 23 76 50 39 28 75 50 80 50 6 0 10 4 10
9 0 5 8 11 18 15 24 8 50 26 101 69 24 20 49 37 56 37 6 0 20 9 30 20 10 11
41 32 69 46 28 14 64 32 80 41 79 42 129 52 264 53 91 0 155 -5 200 -16z
m2512 -1759 c13 -15 11 -83 -10 -325 -5 -58 -16 -222 -24 -365 -16 -277 -22
-338 -36 -370 -32 -78 -48 -107 -86 -161 -46 -64 -108 -125 -219 -213 -71 -57
-161 -121 -170 -121 -3 0 -35 -22 -73 -48 -70 -51 -97 -67 -171 -103 -62 -30
-121 -22 -168 22 -35 35 -93 140 -93 171 0 29 -39 162 -59 204 -52 105 -148
143 -230 89 -46 -31 -107 -110 -117 -152 -4 -15 -10 -32 -14 -38 -32 -43 -57
-214 -70 -480 -9 -201 -16 -235 -68 -355 -15 -34 -105 -130 -122 -130 -5 0
-34 -16 -64 -35 -30 -19 -58 -35 -62 -35 -3 0 -23 -13 -44 -30 -21 -16 -40
-30 -43 -30 -9 0 -125 -80 -137 -95 -7 -8 -18 -15 -25 -15 -8 0 -15 -3 -17 -7
-4 -9 -165 -121 -206 -143 -15 -9 -64 -41 -108 -71 -43 -31 -90 -60 -104 -64
-14 -4 -38 -18 -55 -30 -45 -33 -166 -88 -275 -126 -120 -41 -368 -35 -460 11
-9 4 -31 11 -50 15 -18 4 -53 18 -76 31 -24 13 -52 24 -63 24 -12 0 -21 3 -21
8 0 4 -21 15 -48 26 -26 10 -70 29 -99 42 -28 13 -54 24 -57 24 -5 0 -65 26
-161 70 -22 10 -71 30 -110 44 -38 15 -79 30 -90 35 -61 28 -136 60 -177 77
-27 10 -48 22 -48 26 0 3 -13 9 -30 13 -16 3 -52 17 -80 31 -27 13 -56 24 -62
24 -7 0 -22 7 -32 15 -11 8 -29 15 -41 15 -12 0 -25 4 -30 9 -6 5 -46 23 -90
41 -44 17 -89 35 -100 39 -11 5 -36 16 -57 25 -20 9 -41 16 -46 16 -6 0 -30
10 -54 23 -24 12 -62 28 -86 35 -42 13 -348 165 -401 200 -40 26 -63 40 -96
58 -40 21 -95 75 -95 91 0 7 -4 13 -10 13 -5 0 -10 6 -10 13 0 7 -9 30 -21 51
-27 50 -59 153 -59 191 0 17 -7 52 -15 79 -8 27 -15 66 -15 87 0 21 -4 40 -9
43 -5 3 -11 29 -14 58 -3 29 -13 89 -21 133 -9 44 -21 112 -27 150 -6 39 -15
74 -20 79 -5 6 -9 27 -9 47 0 21 -5 50 -10 64 -13 35 7 80 35 80 20 0 64 -14
120 -39 17 -8 55 -24 85 -36 30 -12 69 -28 85 -35 17 -8 51 -22 76 -33 37 -16
48 -26 52 -48 13 -72 40 -163 59 -204 20 -43 173 -210 192 -210 5 0 23 -11 40
-24 17 -13 42 -27 56 -31 14 -4 48 -18 77 -31 28 -13 58 -24 67 -24 8 0 17 -4
21 -9 3 -5 22 -15 43 -22 43 -14 124 -51 267 -121 149 -74 200 -88 319 -88 65
0 110 5 127 14 14 7 37 16 52 20 14 3 52 30 84 59 32 30 66 56 75 60 15 5 145
-39 158 -53 15 -18 287 -108 405 -134 95 -22 383 -22 480 -1 86 19 172 45 205
62 14 7 31 13 38 13 6 0 12 4 12 9 0 5 11 12 25 15 30 8 125 67 144 90 7 9 18
16 24 16 5 0 26 12 46 28 20 15 43 32 52 37 56 34 126 84 138 98 7 10 17 17
22 17 13 0 99 63 99 72 0 4 4 8 9 8 6 0 39 20 75 45 37 25 69 45 73 45 4 0 18
11 32 24 21 19 164 118 233 161 8 6 50 36 92 68 42 31 79 57 82 57 3 0 23 12
43 28 20 15 43 32 52 37 47 29 129 88 139 100 7 8 17 15 22 15 11 0 91 60 96
72 2 5 7 8 12 8 11 0 125 77 140 95 7 8 17 15 22 15 6 0 27 14 48 30 21 17 41
30 45 30 4 0 25 16 48 35 22 19 45 35 51 35 5 0 20 10 32 21 13 12 32 27 43
33 11 6 49 32 86 59 36 26 70 47 75 47 6 0 10 4 10 8 0 5 10 14 23 21 31 16
66 39 128 87 30 22 65 47 79 55 14 8 46 31 71 52 26 20 50 37 53 37 10 0 109
75 130 99 23 25 29 26 46 6z m-5216 -1150 c11 -8 27 -15 35 -15 8 0 33 -9 55
-19 84 -40 135 -61 146 -61 5 0 18 -4 28 -10 32 -18 146 -67 222 -95 41 -16
80 -32 85 -36 6 -4 46 -21 90 -38 44 -18 89 -36 100 -41 122 -56 156 -70 168
-70 7 0 17 -4 22 -8 6 -5 30 -17 55 -26 116 -45 140 -60 140 -87 0 -30 -18
-48 -81 -77 -38 -18 -63 -22 -156 -22 -99 0 -121 3 -219 36 -60 19 -132 46
-161 60 -28 13 -55 24 -58 24 -22 0 -320 147 -335 165 -7 8 -18 15 -25 15 -22
0 -131 108 -152 151 -29 60 -44 120 -37 147 7 26 48 30 78 7z"/>
<path d="M7381 10554 c-62 -19 -166 -72 -230 -116 -30 -21 -58 -38 -63 -38 -4
0 -39 -22 -78 -50 -39 -27 -73 -50 -76 -50 -3 0 -27 -18 -53 -40 -26 -22 -51
-40 -55 -40 -5 0 -35 -18 -68 -40 -33 -22 -64 -40 -68 -40 -4 0 -32 -27 -63
-59 -75 -78 -76 -106 -11 -173 37 -39 153 -108 180 -108 3 0 20 -6 37 -14 18
-7 82 -32 142 -55 61 -23 121 -48 135 -55 14 -7 52 -20 85 -30 33 -9 74 -21
91 -26 38 -12 79 -13 102 -1 9 5 42 14 72 21 59 13 155 54 165 70 5 9 84 63
137 95 49 29 218 148 228 160 7 8 17 15 22 15 15 0 113 76 143 111 41 50 48
72 40 125 -5 38 -15 56 -48 88 -38 37 -158 106 -185 106 -6 0 -12 3 -14 8 -1
4 -32 20 -68 36 -36 16 -87 39 -115 51 -132 60 -287 80 -384 49z m247 -60 c60
-15 116 -38 177 -72 11 -6 52 -26 90 -44 39 -18 72 -36 75 -39 3 -4 19 -11 35
-15 76 -19 123 -69 124 -132 1 -27 -8 -42 -50 -83 -28 -27 -55 -49 -60 -49 -6
0 -43 -22 -82 -48 -40 -27 -79 -51 -87 -55 -24 -12 -50 -29 -133 -84 -42 -29
-81 -53 -86 -53 -4 0 -16 -9 -27 -21 -40 -44 -123 -73 -222 -77 -88 -4 -203
14 -237 38 -5 3 -39 15 -75 25 -36 10 -74 24 -85 30 -11 7 -40 18 -65 25 -25
8 -50 17 -56 22 -6 4 -38 17 -71 27 -112 36 -135 56 -131 113 2 30 9 46 23 53
42 22 131 84 144 99 7 9 20 16 27 16 8 0 14 5 14 10 0 6 5 10 11 10 6 0 24 10
39 23 63 49 117 87 127 87 5 0 20 11 33 25 13 14 28 25 35 25 6 0 26 13 45 30
19 16 38 29 42 30 4 0 32 16 62 35 30 19 60 35 67 35 6 0 25 6 42 14 18 8 41
17 52 20 31 8 129 -2 203 -20z"/>
<path d="M8610 10005 c-84 -39 -122 -61 -142 -82 -12 -13 -27 -23 -34 -23 -6
0 -18 -7 -25 -16 -8 -9 -45 -37 -84 -62 -38 -25 -92 -64 -119 -86 -28 -23 -57
-45 -67 -51 -79 -47 -221 -173 -243 -215 -7 -14 -18 -34 -26 -46 -35 -55 23
-166 105 -199 40 -16 50 -21 156 -69 31 -14 61 -26 67 -26 6 0 31 -11 54 -24
24 -12 66 -31 93 -41 28 -10 55 -22 60 -26 26 -19 169 -69 198 -69 18 0 38 -5
44 -11 20 -20 189 6 223 35 8 7 22 16 30 19 8 4 40 26 71 50 94 70 204 151
220 162 38 24 103 72 134 98 18 15 36 27 40 27 13 0 145 133 145 146 0 6 6 17
14 23 21 18 29 81 16 133 -15 58 -59 102 -130 127 -124 45 -140 51 -183 76
-25 14 -52 25 -59 25 -7 0 -35 11 -63 24 -86 41 -122 56 -138 56 -9 0 -18 4
-22 9 -3 6 -27 13 -53 17 -26 3 -51 10 -57 14 -5 5 -50 11 -100 14 -72 5 -97
3 -125 -9z m290 -84 c36 -12 77 -28 92 -36 14 -8 34 -15 45 -15 10 0 29 -9 43
-20 14 -11 29 -20 34 -20 4 0 36 -13 70 -29 145 -67 173 -80 197 -86 49 -12
81 -47 86 -95 4 -38 0 -53 -25 -92 -28 -42 -99 -103 -162 -139 -14 -8 -48 -33
-77 -56 -28 -24 -54 -43 -57 -43 -3 0 -34 -20 -68 -45 -251 -180 -260 -185
-371 -185 -74 0 -198 22 -222 40 -5 4 -50 22 -100 41 -49 18 -99 38 -110 45
-11 6 -38 17 -60 24 -22 7 -67 25 -100 40 -33 16 -82 37 -110 47 l-50 19 -3
56 -3 57 71 75 c40 41 81 78 93 82 12 4 27 13 34 20 28 27 100 84 108 84 4 0
31 21 60 48 70 64 170 142 183 142 6 0 12 3 14 8 2 4 26 19 53 34 47 25 57 27
160 24 80 -2 128 -9 175 -25z"/>
<path d="M5938 9595 c-107 -37 -252 -112 -301 -155 -25 -22 -48 -40 -52 -40
-4 0 -24 -12 -44 -27 -20 -16 -44 -32 -53 -38 -9 -5 -44 -29 -78 -52 -34 -24
-64 -43 -66 -43 -2 0 -53 -34 -114 -75 -61 -41 -113 -75 -116 -75 -3 0 -23
-13 -44 -30 -21 -16 -42 -30 -47 -30 -6 0 -18 -9 -28 -20 -10 -11 -46 -35 -79
-54 -34 -19 -90 -64 -126 -101 -62 -63 -65 -68 -65 -115 0 -44 4 -53 39 -89
22 -22 53 -43 70 -47 17 -3 36 -10 41 -13 6 -4 26 -14 45 -21 19 -7 49 -18 65
-25 78 -32 114 -45 163 -62 28 -10 52 -21 52 -25 0 -3 15 -10 33 -13 17 -4 37
-11 42 -15 6 -4 33 -15 60 -25 28 -10 55 -22 60 -25 6 -4 24 -10 40 -14 17 -4
52 -18 78 -32 27 -13 55 -24 63 -24 8 0 22 -4 32 -9 33 -18 90 -41 100 -41 6
0 23 -6 39 -14 40 -21 87 -40 168 -70 39 -15 79 -30 90 -35 75 -33 94 -41 103
-41 6 0 23 -6 39 -14 24 -13 58 -27 178 -76 11 -4 40 -16 65 -25 25 -10 59
-24 77 -31 17 -8 37 -14 45 -14 8 0 18 -4 23 -8 19 -16 253 -106 318 -123 67
-16 310 -8 357 13 19 9 42 19 50 22 33 14 131 76 167 105 40 33 121 93 143
106 29 18 100 69 135 98 18 15 36 27 41 27 4 0 29 18 55 40 26 22 52 40 57 40
5 0 16 7 23 16 7 9 36 31 64 49 27 17 59 42 69 54 11 11 24 21 29 21 6 0 25
11 43 25 18 14 36 25 41 25 5 0 40 32 78 70 l70 71 0 68 c0 61 -4 75 -30 112
-41 58 -162 146 -237 171 -18 6 -40 17 -49 24 -8 8 -25 14 -37 14 -12 0 -22 4
-22 10 0 5 -17 12 -37 15 -21 3 -59 17 -85 31 -27 13 -57 24 -68 24 -11 0 -20
4 -20 9 0 5 -13 12 -30 16 -16 3 -47 15 -68 25 -21 10 -51 22 -67 26 -16 4
-40 13 -54 20 -14 8 -33 14 -41 14 -9 0 -20 4 -25 9 -6 4 -32 16 -60 26 -27
10 -54 22 -60 26 -5 3 -26 10 -45 14 -19 4 -39 10 -45 14 -5 4 -41 20 -80 35
-38 15 -83 34 -98 42 -16 8 -37 14 -48 14 -10 0 -19 4 -19 8 0 5 -28 17 -62
27 -34 10 -74 24 -88 31 -49 25 -98 44 -112 44 -8 0 -18 4 -24 9 -5 4 -31 16
-59 26 -27 10 -54 22 -60 25 -5 4 -23 10 -40 14 -16 4 -52 17 -80 30 -94 45
-153 56 -291 55 -108 0 -140 -4 -196 -24z m365 -31 c34 -9 89 -29 122 -44 33
-15 85 -38 115 -50 30 -12 69 -29 87 -36 17 -8 35 -14 40 -14 5 0 27 -9 49
-19 22 -11 52 -23 67 -26 15 -4 27 -11 27 -15 0 -5 14 -11 30 -15 17 -4 43
-13 58 -20 15 -7 70 -29 122 -49 52 -21 107 -44 122 -51 14 -8 33 -15 41 -15
9 0 28 -6 44 -14 63 -32 141 -66 152 -66 6 0 19 -4 29 -9 30 -17 134 -61 143
-61 4 0 37 -13 72 -30 36 -16 70 -30 76 -30 6 0 19 -4 29 -9 40 -22 151 -70
197 -86 65 -22 155 -67 155 -77 0 -4 6 -8 13 -8 16 0 97 -82 97 -98 0 -7 5
-12 10 -12 6 0 10 -22 10 -50 0 -27 -4 -50 -10 -50 -5 0 -10 -7 -10 -15 0 -12
-80 -72 -125 -95 -6 -3 -39 -25 -74 -50 -35 -25 -71 -49 -80 -55 -9 -5 -18
-12 -21 -15 -16 -16 -90 -70 -96 -70 -4 0 -38 -22 -76 -50 -38 -27 -71 -50
-75 -50 -4 0 -28 -18 -54 -40 -26 -22 -50 -40 -53 -40 -3 0 -35 -21 -71 -47
-37 -27 -74 -52 -83 -58 -10 -5 -34 -23 -54 -38 -95 -73 -157 -89 -323 -84
-71 2 -145 6 -164 10 -30 6 -174 55 -226 78 -11 4 -45 19 -76 33 -31 13 -72
27 -90 31 -18 4 -40 11 -49 16 -41 22 -132 58 -161 64 -19 4 -43 13 -54 20
-11 8 -40 19 -65 26 -25 7 -54 18 -65 24 -11 7 -40 18 -65 25 -25 8 -54 20
-65 27 -11 7 -29 13 -42 13 -12 0 -24 4 -28 9 -3 5 -29 17 -58 26 -28 9 -63
22 -77 29 -14 7 -45 19 -70 26 -25 8 -54 20 -65 27 -11 7 -29 13 -42 13 -12 0
-24 4 -27 9 -4 5 -32 17 -64 27 -31 9 -62 21 -68 26 -6 4 -38 17 -71 27 -34
11 -69 24 -79 29 -11 5 -41 17 -69 27 -27 9 -79 28 -115 42 -36 14 -85 32
-110 40 -106 35 -160 74 -160 114 0 32 96 143 133 155 12 4 40 22 61 40 22 19
44 34 50 34 6 1 27 14 46 30 19 17 39 30 45 30 7 0 22 11 35 25 13 14 28 25
33 25 5 0 26 14 47 30 21 17 41 30 44 30 3 0 37 21 74 48 38 26 76 52 85 57
47 29 169 115 217 155 59 49 234 140 315 164 70 21 258 21 338 0z"/>
<path d="M5951 9299 c-18 -5 -38 -14 -45 -19 -59 -48 -75 -60 -84 -60 -5 0
-36 -19 -68 -43 -96 -69 -139 -97 -151 -97 -6 0 -17 -7 -24 -16 -15 -18 -115
-86 -162 -111 -17 -8 -55 -40 -84 -70 -66 -68 -69 -95 -17 -153 20 -22 52 -47
70 -55 19 -8 49 -22 68 -30 19 -8 39 -15 44 -15 6 0 23 -7 39 -15 15 -8 75
-33 133 -55 109 -43 121 -48 182 -74 20 -9 42 -16 50 -16 8 0 18 -4 24 -8 5
-5 32 -17 59 -26 28 -10 64 -24 82 -32 17 -8 36 -14 41 -14 6 0 23 -7 39 -15
52 -27 142 -65 153 -65 5 0 18 -4 28 -9 33 -18 90 -41 100 -41 5 0 23 -7 38
-15 16 -8 36 -15 45 -15 8 0 19 -4 25 -8 5 -5 41 -21 79 -36 39 -15 84 -33
100 -41 17 -7 47 -20 68 -29 49 -22 187 -31 259 -17 71 13 156 54 212 101 23
19 49 40 57 45 9 6 51 36 93 68 42 31 80 57 85 57 5 0 11 3 13 8 4 10 115 102
123 102 18 0 98 65 120 98 35 52 32 84 -12 134 -39 42 -121 88 -160 88 -12 0
-24 4 -27 8 -3 5 -45 24 -93 42 -48 18 -108 41 -132 52 -25 11 -60 22 -78 25
-18 3 -33 9 -33 12 0 4 -28 16 -62 26 -35 10 -72 24 -83 30 -11 7 -40 18 -65
25 -25 8 -50 17 -56 22 -6 4 -37 17 -70 27 -81 27 -127 45 -141 54 -6 4 -40
16 -74 27 -34 11 -67 24 -73 28 -6 5 -31 14 -56 21 -25 7 -55 19 -67 27 -12 7
-39 18 -60 23 -21 6 -65 20 -98 32 -47 16 -88 22 -190 25 -72 2 -145 -1 -164
-7z m295 -47 c5 -5 36 -17 69 -27 59 -18 73 -23 167 -64 26 -12 51 -21 54 -21
3 0 20 -6 37 -14 18 -7 52 -21 77 -31 25 -10 67 -28 93 -41 27 -13 53 -24 59
-24 15 0 152 -55 258 -102 30 -14 71 -29 90 -33 19 -4 40 -11 45 -15 6 -4 42
-20 80 -35 39 -14 93 -37 120 -49 28 -13 76 -31 107 -41 32 -10 63 -24 69 -31
6 -8 23 -14 37 -14 32 0 72 -36 72 -65 0 -23 -43 -68 -105 -109 -22 -14 -68
-46 -103 -71 -35 -25 -67 -45 -71 -45 -5 0 -14 -7 -21 -15 -25 -31 -247 -182
-290 -198 -27 -10 -75 -17 -118 -17 -74 0 -209 25 -226 41 -6 5 -21 9 -35 9
-15 0 -35 7 -45 15 -11 8 -28 15 -37 15 -10 0 -30 6 -46 14 -40 21 -122 56
-129 56 -3 0 -20 6 -37 14 -18 8 -57 22 -87 31 -30 10 -66 23 -80 30 -14 6
-45 18 -70 25 -25 8 -50 17 -55 21 -10 7 -80 33 -234 85 -71 24 -138 50 -208
80 -17 8 -38 14 -46 14 -9 0 -18 4 -22 9 -3 5 -50 24 -105 42 -156 51 -204
104 -142 160 27 26 129 99 136 99 6 0 102 67 167 116 30 22 65 47 79 55 13 8
56 37 95 64 39 28 80 55 91 62 22 14 294 18 310 5z"/>
</g>
</svg>
