<?xml version="1.0" encoding="utf-8"?>
<!-- Generator: Adobe Illustrator 21.1.0, SVG Export Plug-In . SVG Version: 6.00 Build 0)  -->
<svg version="1.1" id="Layer_1" xmlns="http://www.w3.org/2000/svg" xmlns:xlink="http://www.w3.org/1999/xlink" x="0px" y="0px"
	 viewBox="0 0 2000 2000" style="enable-background:new 0 0 2000 2000;" xml:space="preserve">
<style type="text/css">
	.st0{fill:#FFFFFF;}
</style>
<path class="st0" d="M566.7,298.7c-6.9,0.4-16.5,1.9-21.3,3.2c-4.8,1.3-12,3.3-16,4.4c-4,1.2-9.2,3.2-11.5,4.5
	c-2.3,1.5-5.5,2.5-6.9,2.5c-3.3,0-13.7,5.5-14.5,7.6c-0.4,0.9-2.1,1.7-4,1.7c-3.5,0-15.1,6.1-15.1,8c0,0.7-1.3,1.6-2.9,2.1
	c-3.3,0.9-38.4,35.3-38.4,37.6c0,0.8-2.1,3.7-4.7,6.5s-4.7,6-4.7,7.2c0,1.2-1.1,3.6-2.4,5.3c-5.6,7.3-12,19.7-14.1,27.2
	c-1.3,4.4-3.6,11.9-5.2,16.7L402,442l-0.4,410.7c-0.1,246,0.1,412.8,0.9,416c4,17.5,7.2,26.8,10.8,31.7c2.1,2.9,4,7.1,4,9.1
	c0,2.1,2,6.3,4.7,9.7c2.5,3.5,4.7,6.9,4.7,7.9c0,0.8,1.9,4.3,4,7.6c2.1,3.3,4.7,7.2,5.6,8.7c5.3,8.5,45.5,44.7,49.6,44.7
	c2,0,11.1,4.7,14,7.1c1.2,1.1,6,3.2,10.8,4.9c4.8,1.7,9.3,3.6,10.1,4.3c0.8,0.5,6.3,2,12,3.1c20.1,3.9,22.5,4.4,26.3,5.9
	c2.7,1.1,35.3,1.5,104.9,1.5c97.7,0,101.3-0.1,107.2-2.7c7.7-3.2,14.7-10.5,19.1-19.7c3.3-7.1,3.3-7.2,0.9-13.3
	c-2.5-7.1-5.9-12.1-7.7-12.3c-0.8,0-2.5-1.2-4.1-2.7c-2.9-2.7-4.4-2.8-105.5-3.1c-103.9-0.3-103.1-0.3-119.9-4.9
	c-2.1-0.7-9.1-2.9-15.3-5.2c-6.3-2.3-12.1-4.1-13.1-4.1c-0.9,0-4.7-2.4-8.1-5.3s-7.2-5.3-8.4-5.3c-2.3,0-12-8.3-20.5-17.3
	c-3.1-3.3-8-8.7-11.1-12c-2.9-3.2-5.5-6.8-5.5-7.9c0-2.9-5.6-10.7-8.3-11.6c-1.9-0.5-2.4-2.1-2.4-6.4c0-3.2-1.1-8.1-2.3-10.9
	c-2.3-4.9-2.4-27.5-2.4-412.5V450l3.2-9.3c3.3-9.7,5.9-15.2,9.9-20.5c1.2-1.7,2.3-4.1,2.3-5.3c0-2,8-11.1,24.7-28.1
	c4-4,9.5-8.5,12.3-9.9c2.8-1.5,6.9-4,9.1-5.5c2.3-1.6,7.1-4,10.7-5.3c3.7-1.3,8.1-3.6,9.9-4.9c1.6-1.2,5.2-2.7,8-3.2
	c2.7-0.4,7.7-1.7,11.2-2.8c5.1-1.7,9.6-1.9,22-1.1c8.5,0.5,17.7,0.8,20.3,0.7c2.5-0.1,171.7-0.5,376-0.8l371.3-0.5l12,2.8
	c6.7,1.6,12.9,3.7,14,4.7c1.1,0.9,5.5,2.9,9.6,4.5c4.1,1.5,8.9,3.9,10.7,5.1s6,3.7,9.6,5.6c8,4.1,33.3,30.7,38,39.7
	c1.7,3.5,4.5,8,6.3,10c1.7,2.1,3.2,5.2,3.2,6.9c0,1.7,0.7,4.8,1.5,6.9c5.1,13.1,5.2,14.9,5.1,416.4c0,400.7,0,404.8-5.1,417.7
	c-0.8,2.1-1.5,5.2-1.5,6.8c0,1.7-1.9,5.5-4.1,8.3c-2.3,2.9-5.3,7.7-6.8,10.8c-3.1,6.5-31.9,36.4-35.1,36.4c-2,0-7.3,3.2-12.9,7.9
	c-3.6,2.8-30.9,11.9-45.1,14.8c-12,2.4-18.5,2.5-116,2.5c-56.9,0-104.4,0.4-105.7,0.9c-1.2,0.4-2.3,1.6-2.3,2.7
	c0,1.1-1.2,1.9-2.7,1.9c-3.6,0-11.2,6.9-15.5,14.4c-2,3.5-4.7,7.5-5.9,8.9c-1.3,1.5-3.3,5.7-4.5,9.6c-1.3,3.7-3.3,8.3-4.7,10
	c-2.3,3.1-6.8,12-6.8,13.6c0,0.4-1.9,3.3-4,6.4c-2.3,3.1-4.8,8.1-5.6,11.3c-0.8,3.2-1.9,5.7-2.4,5.7c-1.7,0-6.3,8.3-7.3,13.3
	c-0.5,2.5-2.4,6.3-4,8.3c-1.7,2-4.1,6.5-5.5,10c-1.2,3.5-3.3,7.6-4.5,9.1c-3.6,4.1-6.7,10.8-6.7,14.7c0,1.9-0.5,3.3-1.2,3.3
	c-2.3,0-7.1,8-8.4,13.7c-0.7,3.1-2.4,6.7-4,8.1c-1.5,1.3-4.1,5.6-5.9,9.3c-1.7,3.7-5.6,10.4-8.5,14.8s-6.5,10.7-8,14
	s-3.9,8.1-5.3,10.7c-1.3,2.5-3.7,7.3-5.3,10.7c-1.5,3.3-3.1,6.7-3.6,7.5c-6,8.9-10.7,16.4-11.9,18.5c-2.5,4.5-6.8,4.1-9.3-0.9
	c-1.2-2.4-4.3-6.1-6.7-8.1c-2.5-2.1-4.5-4.5-4.5-5.5c0-0.8-4.3-7.2-9.5-14.1c-5.2-6.9-10.5-15.1-11.9-18c-1.2-2.9-3.9-6.8-5.7-8.7
	c-1.9-1.9-4-6-4.8-9.1c-0.9-3.2-2.7-6.8-3.9-8c-4.7-4.8-13.5-17.5-15.5-22.3c-1.2-2.7-3.6-6.8-5.5-9.2c-1.9-2.3-6.9-8.7-11.3-14.3
	c-6.1-8-9.5-11.1-15.5-14c-4.1-2.1-7.9-4.8-8.1-6.1c-0.8-2.7-4.4-3.7-14-3.7c-6.3,0-8,0.5-9.3,2.7c-0.9,1.5-2.7,2.7-3.9,2.7
	c-2.5,0-6.9,5.7-9.2,12.3c-1.5,4.1-1.5,5.9,0,10.7c2.4,7.5,6.4,15.7,9.3,19.1c3.7,4.3,11.2,15.5,14.3,21.6c2.7,5.1,9.9,15.6,14,20.4
	c1.1,1.2,3.6,5.1,5.7,8.7c2.1,3.7,6.5,10.5,9.7,15.3c3.3,4.8,7.5,11.3,9.3,14.7c1.7,3.3,4.7,7.5,6.3,9.3s4.5,5.9,6.4,8.9
	c2,3.1,4.1,5.9,4.9,6.4c0.7,0.4,1.3,1.9,1.3,3.1s4.5,8.3,10,15.6c5.5,7.3,10,14,10,14.9c0,0.8,2,4.1,4.4,7.3
	c2.3,3.2,5.9,8.1,7.7,11.1c4.5,6.9,14,16.7,16.3,16.7c1.1,0,2.5,1.5,3.3,3.3c0.9,1.9,2.7,3.3,4.1,3.3c1.3,0,3.3,1.2,4.3,2.7
	c2.8,4,9.6,4.9,12.9,1.6c1.5-1.5,3.9-3.1,5.2-3.5c4.1-1.3,10.3-7.5,15.9-16c8.3-12.5,9.5-14.8,10.4-19.1c0.5-2.3,2.1-5.2,3.7-6.5
	c3.6-3.3,6.4-8.9,6.4-12.9c0-1.7,1.3-4.7,2.8-6.4c3.5-3.9,7.7-12.9,7.9-16.3c0-1.2,0.5-2.3,1.3-2.3c2,0,8-11.2,8-14.8
	c0-2,1.7-5.1,4.5-7.7c3.3-3.2,4.7-5.9,5.1-10c0.5-3.7,2-6.9,4.9-10.1c2.3-2.5,4.7-6.1,5.2-8c0.5-1.9,4.3-8.4,8.4-14.7
	c4-6.3,8.7-14.7,10.4-18.7c1.7-4,3.9-8.3,4.7-9.3c0.9-1.1,3.1-5.3,4.7-9.3c1.7-4,4.1-8.5,5.3-10c2.8-3.2,6.8-11.6,6.8-14.4
	c0-1.1,0.9-2.7,2.1-3.7c2.4-2,7.2-10.9,7.2-13.6c0-0.9,1.5-3.7,3.3-6.3c1.7-2.4,4.3-7.2,5.6-10.5c1.2-3.3,4.3-8.9,6.7-12.3
	c2.4-3.5,4.4-7.5,4.4-8.9c0-3.2,12.5-20.4,15.9-21.9c1.2-0.5,45.3-0.9,98.1-0.9c101.3-0.1,99.2,0,121.2-6.3
	c3.5-1.1,8.1-1.9,10.4-1.9c2.1,0,6.1-1.2,8.8-2.5c2.7-1.3,7.5-3.2,10.4-4c3.1-0.8,7.5-2.8,10-4.5c2.5-1.6,7.2-4.1,10.5-5.6
	c3.3-1.3,10.4-5.7,15.7-9.7c10.5-7.7,37.6-33.9,37.6-36.3c0-0.9,2.1-4,4.7-7.1c2.5-2.9,4.7-6,4.7-6.7c0-1.2,6.1-11.3,12.1-19.9
	c4-5.7,10.1-23.5,11.7-34.4c1.2-7.5,1.5-114.9,1.2-426l-0.4-416l-4.1-12.9c-2.4-7.2-5.9-14.9-7.7-17.2c-1.9-2.3-3.5-4.9-3.5-6
	c0-2.7-3.6-9.6-7.6-14.5c-1.7-2.3-3.6-4.7-4.1-5.3c-7.6-10.3-12.5-15.7-26.1-28.9c-8.9-8.7-16.7-15.7-17.2-15.7
	c-0.5,0-4-2.4-7.7-5.3c-4.9-3.9-8-5.3-11.3-5.3c-2.5,0-4.5-0.5-4.5-1.3c0-2.1-10.4-8-14.4-8c-2,0-5.2-1.1-6.9-2.3
	c-1.9-1.3-9.3-4.4-16.7-6.8c-10.9-3.6-16.5-4.7-31.3-5.6C1326.8,297.3,586.9,297.3,566.7,298.7L566.7,298.7z"/>
<path class="st0" d="M969.3,557.3c-13.9,4.9-26.8,12.1-36.1,20c-2.7,2.1-5.2,4-5.7,4c-0.4,0-4.9,2.9-10.1,6.7
	c-5.2,3.6-9.7,6.7-10.1,6.7s-2.7,1.5-5.1,3.3c-2.4,1.9-4.7,3.3-5.1,3.3c-1.3,0-16.7,10.7-18.4,12.7c-0.9,1.1-2.1,2-2.8,2
	s-7.3,4-14.9,8.9c-7.5,5.1-14.7,9.6-15.9,10.4c-1.3,0.7-10.9,7.2-21.5,14.3c-10.5,7.2-19.7,13.1-20.4,13.1c-0.8,0-2.8,1.5-4.5,3.3
	c-1.7,1.9-3.9,3.3-4.9,3.3c-0.9,0-1.7,0.4-1.7,0.9c0,0.7-3.1,2.8-6.8,5.1c-3.7,2.1-10.3,6.5-14.7,9.6c-4.3,3.2-8.5,5.7-9.2,5.7
	c-0.8,0-1.3,0.4-1.3,1.1c0,0.5-2.3,2.1-4.9,3.6c-7.2,3.9-19.9,12.4-21.7,14.7c-0.9,1.1-2.5,2-3.5,2c-1.1,0-1.9,0.5-1.9,1.2
	c0,0.7-1.1,1.6-2.3,2c-3.3,1.2-6.5,3.2-16.7,10.4c-4.9,3.6-9.3,6.4-9.7,6.4c-0.5,0-3.1,1.7-5.6,4c-2.4,2.1-5.1,4-5.7,4
	c-0.8,0-5.5,2.9-10.7,6.7c-5.2,3.6-9.6,6.7-9.9,6.7s-4.1,2.4-8.5,5.3s-8.4,5.3-8.9,5.3c-0.5,0-3.2,1.7-6,4c-2.8,2.1-5.5,4-6,4
	s-6.3,3.6-12.9,8.1c-6.5,4.4-12.9,8.4-14.1,8.9c-1.2,0.4-5.5,3.1-9.5,5.9c-4,2.8-7.9,5.1-8.5,5.1c-0.7,0-3.5,1.7-6.1,3.7
	c-5.2,4.1-21.1,13.6-22.5,13.6c-2.4,0-22.9,22.3-22.9,24.8c0,1.5-0.7,3.3-1.5,4.1c-2.3,2.3-3.1,19.2-1.3,27.2
	c2.7,11.7,4.3,14.9,10.9,21.9c5.3,5.7,6.4,7.6,6.9,13.3c0.4,3.6,1.9,12,3.5,18.7c1.5,6.5,2.8,13.7,2.8,16c0,2.1,0.9,6.9,2,10.5
	c1.1,3.6,2,8.8,2,11.6c0,2.8,0.5,5.3,1.2,5.7c0.7,0.4,1.5,2.7,1.9,5.1c0.4,2.4,1.7,10.1,2.8,17.1c1.1,6.9,2.5,15.3,3.2,18.7
	c0.7,3.3,2,9.9,2.8,14.7c3.2,17.2,5.6,25.7,9.1,31.1c3.6,6,28.3,31.6,30.3,31.6c0.7,0,3.1,1.3,5.3,3.1c2.3,1.6,7.7,4.8,12.1,6.8
	c4.4,2.1,9.9,5.3,12.1,6.9c2.3,1.7,5.9,3.5,8,4c2.1,0.5,5.7,2.1,7.9,3.5c2.3,1.3,4.9,2.8,6,3.2c4.3,1.7,10.3,4.4,18,7.9
	c4.4,2,9.2,4,10.7,4.7c1.5,0.5,4.8,2,7.6,3.2c2.7,1.2,5.7,2.1,6.8,2.1c1.2,0,2.4,0.5,2.8,1.2c0.5,0.7,4.3,2.3,8.5,3.6
	c4.1,1.2,8.3,2.8,8.9,3.3c0.8,0.5,4.7,2.3,8.7,3.7c8.1,3.2,9.3,3.7,20.4,8.7c4.3,1.9,8.1,3.5,8.5,3.5c0.5,0,4.5,1.7,8.9,3.9
	c14.7,7.1,23.5,10.8,25.2,10.8c0.9,0,2.3,0.5,3.1,1.2c0.7,0.5,8.1,4,16.5,7.5c8.4,3.5,16,6.8,16.7,7.3c0.8,0.4,3.5,1.7,6,2.7
	c5.5,2,14,5.7,23.5,10.1c3.7,1.7,7.5,3.2,8.3,3.2c0.8,0,4.4,1.6,7.9,3.5c3.5,1.9,13.6,5.9,22.4,8.9c15.9,5.5,16.1,5.5,36,5.6
	c20.3,0,22-0.3,32.9-6.1c1.3-0.7,3.1-1.2,3.9-1.2c2.5,0,34-15.7,41.3-20.8c3.7-2.5,6.9-4.5,7.2-4.5s3.9-2.4,8.1-5.3
	c8.8-6,21.3-14.5,24.7-16.7c1.2-0.7,6.9-4.9,12.7-9.3c19.7-14.9,43.3-31.3,45.2-31.3c0.5,0,3.2-1.9,6-4c2.8-2.3,5.6-4,6.3-4
	c1.5,0,10.7-9.7,14.7-15.5c3.3-4.9,8.4-15.7,8.4-18.1c0-1.1,0.5-2.4,1.2-3.1c2.3-2.3,4.5-24.7,5.3-52c0.5-16,1.5-27.7,2.3-29.2
	c0.9-1.6,3.1-2.5,5.5-2.5c3.9,0,16.4,6.8,25.9,14c2.7,2,5.5,3.7,6.1,3.7c0.7,0,4.5,2.3,8.7,4.9c18.7,12.8,21.9,14.3,31.1,14.3
	c8.1,0,14.4-2.1,22.7-7.7c5.6-4,9.1-6,11.3-7.1c1.1-0.4,3.7-2.1,6-3.6c2.1-1.6,6.1-3.9,8.7-5.3c2.5-1.3,7.1-4.1,10-6.4
	c2.9-2.1,8.7-6.3,12.7-9.3c11.1-8.1,31.5-29.7,36.9-39.1c9.3-16,12.3-29.3,13.9-62.7c0.5-11.7,1.6-27.1,2.3-34
	c0.8-6.9,1.5-18.5,1.5-25.6c0.1-7.1,0.7-14.4,1.5-16.3c0.7-1.9,1.3-15.1,1.5-29.1c0.1-17.5,0.8-27.6,2-31.5
	c1.1-3.1,1.9-11.2,1.9-17.9c0-10.8-0.4-13.1-4-20.3c-6.3-12.9-17.5-22.1-35.3-28.9c-3.6-1.5-9.6-4-13.3-5.7c-3.6-1.9-9.1-4.3-12-5.5
	c-8.9-3.7-10.4-4.3-19.5-8.5c-4.8-2.3-9.3-4.1-10-4.1c-2.1,0-8.5-3.2-8.5-4.4c0-0.5-0.7-0.9-1.5-0.9c-0.8,0-3.6-0.9-6.3-2.1
	c-2.8-1.2-8.3-3.5-12.3-5.2c-4-1.7-12.7-5.6-19.1-8.5c-6.5-3.1-12.1-5.5-12.5-5.5c-0.9,0-10-4-12.4-5.5c-1.1-0.7-2.9-1.6-4-2
	c-1.1-0.4-5.2-2.3-9.1-4c-3.9-1.7-7.5-3.2-8-3.2c-0.8,0-4.3-1.6-23.1-10.5c-4.8-2.3-9.3-4.1-10.3-4.1c-0.8,0-4.1-1.5-7.5-3.2
	c-3.3-1.7-8.9-4.3-12.4-5.6c-3.6-1.3-8-3.3-9.9-4.7s-5.1-2.8-7.1-3.3c-2-0.4-6.7-2.3-10.3-4c-3.6-1.7-6.9-3.2-7.5-3.2
	c-0.5,0-5.7-2.4-11.7-5.2c-16.4-8-25.9-12.1-27.7-12.1c-0.9,0-2.8-0.8-4.3-1.7c-1.5-1.1-5.6-2.9-9.3-4.3c-3.6-1.3-7.2-2.9-8-3.5
	c-1.2-0.8-5.9-2-20-5.2c-2.9-0.7-13.5-1.2-23.3-1.2C980.1,554.8,975.2,555.3,969.3,557.3L969.3,557.3z M1021.1,562.1
	c4.9,1.2,10.8,3.1,12.9,4c2.3,0.9,8.3,3.3,13.3,5.3c5.2,2.1,13.2,5.7,18,8.3c4.8,2.5,11.6,5.7,15.2,7.1c3.6,1.5,10.8,4.7,16,7.1
	c5.2,2.5,10.4,4.9,11.5,5.3s2.9,1.3,4,2c4,2.4,24.9,12.1,26.1,12.1c0.7,0,6,2.3,11.9,5.2c14,6.8,29.3,14,36,16.8
	c2.9,1.3,10.8,4.9,17.3,8c21.5,10.1,26.9,12.7,27.9,12.7c0.7,0,2.7,1.1,4.5,2.5c2,1.3,5.1,2.9,6.9,3.3c1.9,0.5,9.5,4,16.9,7.6
	c7.5,3.6,14,6.5,14.7,6.5c0.5,0,7.1,2.9,14.4,6.5c18.7,9.1,25.3,12.1,26.5,12.1c0.5,0,2.7,1.2,4.7,2.5c2,1.5,5.3,3.1,7.6,3.6
	c6.7,1.7,20.9,9.7,26.3,14.9c6.7,6.4,8.9,14.5,8.9,31.2c0,17.7-3.1,24.5-17.3,38.7c-5.9,5.7-11.2,10.4-12,10.4
	c-0.8,0-5.5,2.9-10.5,6.7c-5.1,3.6-9.6,6.7-10.1,6.7s-3.7,2.3-7.2,5.1c-3.3,2.8-7.1,5.6-8.1,6c-1.9,0.8-10.3,6.5-26.3,17.9
	c-3.9,2.8-7.1,5.3-7.1,5.7c0,0.4-1.9,1.5-4,2.5c-2.3,0.9-7.1,4.1-10.7,6.9c-3.6,2.8-6.9,5.2-7.2,5.2c-0.7,0-20.3,13.2-27.5,18.5
	c-2.5,1.9-5.7,4-6.9,4.8c-1.2,0.7-5.9,3.9-10.4,6.9c-4.5,3.2-8.5,5.7-8.9,5.7c-0.3,0-3.5,2.4-6.9,5.3c-3.5,2.9-6.8,5.3-7.3,5.3
	c-0.5,0-5.5,3.3-10.8,7.3c-5.5,4-10.4,7.3-10.8,7.3c-0.5,0-3.3,2-6.4,4.4c-3.1,2.5-6.4,4.8-7.5,5.3c-2.1,0.9-16,10.4-25.2,17.2
	c-3.2,2.4-6.9,4.9-8.1,5.7c-6.7,3.9-16.9,11.2-18.5,13.1c-0.9,1.3-2.3,2.3-2.8,2.3c-1.5,0-16.8,10.4-18.7,12.7c-0.9,1.1-2.5,2-3.5,2
	c-1.1,0-1.9,0.5-1.9,1.1c0,0.7-1.3,1.9-2.9,2.8c-3.3,1.6-5.7,3.2-18.3,11.7c-4.5,3.2-8.7,5.7-8.9,5.7c-0.4,0-3.6,2.4-7.1,5.3
	s-6.9,5.3-7.7,5.3c-0.8,0-2.1,0.8-2.9,1.9c-3.3,4-25.3,12.9-38.8,15.7c-16.8,3.5-23.1,4.1-35.3,4.3c-24.8,0-44.7-4.5-78.7-18.1
	c-19.1-7.6-20.7-8.3-20.7-9.3c0-0.4-1.9-1.2-4.1-1.7c-2.3-0.5-5.6-1.7-7.6-2.8s-4.3-1.9-5.2-1.9s-4.3-1.5-7.6-3.3
	c-3.3-1.9-6.9-3.3-8.1-3.3c-1.1,0-3.1-0.5-4.4-1.2c-4.4-2.4-12-5.5-13.3-5.5c-0.8,0-3.1-0.8-5.2-1.9c-4.7-2.4-10.1-4.7-23.1-9.6
	c-5.5-2-10.5-4.1-11.3-4.7c-0.7-0.5-5.5-2.5-10.7-4.5c-9.5-3.7-14.5-5.7-22.5-9.3c-2.5-1.1-5.5-2-6.5-2c-1.2,0-2.4-0.5-2.8-1.2
	c-0.4-0.7-2.4-1.6-4.4-2c-2.1-0.5-5.5-1.7-7.7-2.8c-9.1-4.3-19.2-8.5-28.7-12c-5.5-2-13.1-5.1-16.8-6.8c-3.7-1.7-7.5-3.2-8.3-3.2
	s-3.1-0.8-5.2-1.9c-5.3-2.8-14.4-6.5-24.4-10.1c-4.8-1.7-9.9-3.9-11.3-4.8c-1.5-0.8-5.1-2.3-8-3.2c-5.7-1.7-9.3-3.1-20.8-8.5
	c-4.1-1.9-8.4-3.5-9.5-3.5c-2.4,0-8-6.1-10.1-11.1c-2.3-5.2-2.1-40,0-44c2.3-3.9,12-14.3,13.5-14.3c0.5,0,3.1-1.5,5.5-3.3
	c2.4-1.9,4.8-3.3,5.2-3.3c0.4,0,4.7-2.7,9.5-6c4.9-3.3,9.2-6,9.6-6c0.4,0,2.7-1.5,5.1-3.3s4.8-3.3,5.2-3.3c0.5,0,4.9-2.9,10-6.4
	c4.9-3.6,9.6-6.8,10.3-7.1c1.3-0.5,18.4-11.6,24.9-16c2-1.5,4-2.5,4.4-2.5c0.4,0,4.8-3.1,10-6.7c5.2-3.7,9.7-6.7,10.1-6.7
	c1.1,0,11.7-8.4,12.3-9.6c0.3-0.7,1.1-1.1,1.9-1.1c0.7,0,3.2-1.3,5.5-3.1c5.9-4,9.1-6,12.3-7.5c1.6-0.7,3.6-2.1,4.5-3.3
	c1.1-1.2,6.7-5.1,12.7-8.8c6-3.6,12-7.7,13.3-9.2c1.5-1.6,3.1-2.8,3.7-2.8c0.7,0,3.2-1.5,5.5-3.2c2.4-1.7,6.4-4.3,8.9-5.7
	c2.7-1.3,7.5-4.5,10.7-7.2c3.3-2.7,6.7-5.1,7.3-5.3c0.8-0.3,7.6-4.8,15.1-9.9c7.6-5.2,14.8-10,16-10.7c1.2-0.8,8.5-5.6,16-10.7
	c7.6-5.2,14.8-10,16-10.7c1.2-0.8,6.5-4.5,11.9-8.4c5.3-3.7,10-6.9,10.5-6.9c0.4,0,2.7-1.5,5.1-3.3c2.4-1.9,4.9-3.3,5.7-3.3
	c0.7,0,2.7-1.5,4.4-3.3c1.7-1.9,3.7-3.3,4.4-3.3s3.5-1.9,6.3-4c2.8-2.3,5.5-4,5.9-4s4.9-3.1,10.1-6.7c5.2-3.7,10-6.7,10.7-6.7
	c0.8,0,1.3-0.5,1.3-1.2c0-0.7,1.1-1.5,2.4-2c3.2-1.1,6.7-3.5,13.5-9.2c3.2-2.7,6.5-4.9,7.5-4.9c0.8,0,2.7-1.2,4-2.7
	c1.3-1.5,5.5-4.3,9.2-6.1c3.7-1.9,8.5-4.3,10.7-5.5c10.5-5.6,17.2-6.9,35.2-7.1C1006.5,560,1015.1,560.7,1021.1,562.1L1021.1,562.1z
	 M1356,796.7c1.7,2,1.5,11.1-1.3,43.3c-0.7,7.7-2.1,29.6-3.2,48.7c-2.1,36.9-2.9,45.1-4.8,49.3c-4.3,10.4-6.4,14.3-11.5,21.5
	c-6.1,8.5-14.4,16.7-29.2,28.4c-9.5,7.6-21.5,16.1-22.7,16.1c-0.4,0-4.7,2.9-9.7,6.4c-9.3,6.8-12.9,8.9-22.8,13.7
	c-8.3,4-16.1,2.9-22.4-2.9c-4.7-4.7-12.4-18.7-12.4-22.8c0-3.9-5.2-21.6-7.9-27.2c-6.9-14-19.7-19.1-30.7-11.9
	c-6.1,4.1-14.3,14.7-15.6,20.3c-0.5,2-1.3,4.3-1.9,5.1c-4.3,5.7-7.6,28.5-9.3,64c-1.2,26.8-2.1,31.3-9.1,47.3
	c-2,4.5-14,17.3-16.3,17.3c-0.7,0-4.5,2.1-8.5,4.7s-7.7,4.7-8.3,4.7c-0.4,0-3.1,1.7-5.9,4c-2.8,2.1-5.3,4-5.7,4
	c-1.2,0-16.7,10.7-18.3,12.7c-0.9,1.1-2.4,2-3.3,2c-1.1,0-2,0.4-2.3,0.9c-0.5,1.2-22,16.1-27.5,19.1c-2,1.2-8.5,5.5-14.4,9.5
	c-5.7,4.1-12,8-13.9,8.5c-1.9,0.5-5.1,2.4-7.3,4c-6,4.4-22.1,11.7-36.7,16.8c-16,5.5-49.1,4.7-61.3-1.5c-1.2-0.5-4.1-1.5-6.7-2
	c-2.4-0.5-7.1-2.4-10.1-4.1c-3.2-1.7-6.9-3.2-8.4-3.2c-1.6,0-2.8-0.4-2.8-1.1c0-0.5-2.8-2-6.4-3.5c-3.5-1.3-9.3-3.9-13.2-5.6
	c-3.7-1.7-7.2-3.2-7.6-3.2c-0.7,0-8.7-3.5-21.5-9.3c-2.9-1.3-9.5-4-14.7-5.9c-5.1-2-10.5-4-12-4.7c-8.1-3.7-18.1-8-23.6-10.3
	c-3.6-1.3-6.4-2.9-6.4-3.5c0-0.4-1.7-1.2-4-1.7c-2.1-0.4-6.9-2.3-10.7-4.1c-3.6-1.7-7.5-3.2-8.3-3.2c-0.9,0-2.9-0.9-4.3-2
	c-1.5-1.1-3.9-2-5.5-2s-3.3-0.5-4-1.2c-0.8-0.7-6.1-3.1-12-5.5c-5.9-2.3-11.9-4.7-13.3-5.2c-1.5-0.7-4.8-2.1-7.6-3.3
	c-2.7-1.2-5.5-2.1-6.1-2.1c-0.8,0-4-1.3-7.2-3.1c-3.2-1.6-8.3-3.7-11.5-4.7c-5.6-1.7-46.4-22-53.5-26.7c-5.3-3.5-8.4-5.3-12.8-7.7
	c-5.3-2.8-12.7-10-12.7-12.1c0-0.9-0.5-1.7-1.3-1.7c-0.7,0-1.3-0.8-1.3-1.7s-1.2-4-2.8-6.8c-3.6-6.7-7.9-20.4-7.9-25.5
	c0-2.3-0.9-6.9-2-10.5c-1.1-3.6-2-8.8-2-11.6c0-2.8-0.5-5.3-1.2-5.7c-0.7-0.4-1.5-3.9-1.9-7.7c-0.4-3.9-1.7-11.9-2.8-17.7
	c-1.2-5.9-2.8-14.9-3.6-20c-0.8-5.2-2-9.9-2.7-10.5c-0.7-0.8-1.2-3.6-1.2-6.3c0-2.8-0.7-6.7-1.3-8.5c-1.7-4.7,0.9-10.7,4.7-10.7
	c2.7,0,8.5,1.9,16,5.2c2.3,1.1,7.3,3.2,11.3,4.8s9.2,3.7,11.3,4.7c2.3,1.1,6.8,2.9,10.1,4.4c4.9,2.1,6.4,3.5,6.9,6.4
	c1.7,9.6,5.3,21.7,7.9,27.2c2.7,5.7,23.1,28,25.6,28c0.7,0,3.1,1.5,5.3,3.2c2.3,1.7,5.6,3.6,7.5,4.1s6.4,2.4,10.3,4.1
	c3.7,1.7,7.7,3.2,8.9,3.2c1.1,0,2.3,0.5,2.8,1.2c0.4,0.7,2.9,2,5.7,2.9c5.7,1.9,16.5,6.8,35.6,16.1c19.9,9.9,26.7,11.7,42.5,11.7
	c8.7,0,14.7-0.7,16.9-1.9c1.9-0.9,4.9-2.1,6.9-2.7c1.9-0.4,6.9-4,11.2-7.9c4.3-4,8.8-7.5,10-8c2-0.7,19.3,5.2,21.1,7.1
	c2,2.4,38.3,14.4,54,17.9c12.7,2.9,51.1,2.9,64,0.1c11.5-2.5,22.9-6,27.3-8.3c1.9-0.9,4.1-1.7,5.1-1.7c0.8,0,1.6-0.5,1.6-1.2
	c0-0.7,1.5-1.6,3.3-2c4-1.1,16.7-8.9,19.2-12c0.9-1.2,2.4-2.1,3.2-2.1c0.7,0,3.5-1.6,6.1-3.7c2.7-2,5.7-4.3,6.9-4.9
	c7.5-4.5,16.8-11.2,18.4-13.1c0.9-1.3,2.3-2.3,2.9-2.3c1.7,0,13.2-8.4,13.2-9.6c0-0.5,0.5-1.1,1.2-1.1c0.8,0,5.2-2.7,10-6
	c4.9-3.3,9.2-6,9.7-6c0.5,0,2.4-1.5,4.3-3.2c2.8-2.5,21.9-15.7,31.1-21.5c1.1-0.8,6.7-4.8,12.3-9.1c5.6-4.1,10.5-7.6,10.9-7.6
	c0.4,0,3.1-1.6,5.7-3.7c2.7-2,5.7-4.3,6.9-4.9c6.3-3.9,17.2-11.7,18.5-13.3c0.9-1.1,2.3-2,2.9-2c1.5,0,12.1-8,12.8-9.6
	c0.3-0.7,0.9-1.1,1.6-1.1c1.5,0,16.7-10.3,18.7-12.7c0.9-1.1,2.3-2,2.9-2c0.8,0,3.6-1.9,6.4-4c2.8-2.3,5.5-4,6-4s3.3-2.1,6.4-4.7
	c2.9-2.5,6-4.7,6.8-4.7c0.7,0,2.7-1.3,4.3-2.8c1.7-1.6,4.3-3.6,5.7-4.4c1.5-0.8,6.5-4.3,11.5-7.9c4.8-3.5,9.3-6.3,10-6.3
	c0.8,0,1.3-0.5,1.3-1.1c0-0.7,1.3-1.9,3.1-2.8c4.1-2.1,8.8-5.2,17.1-11.6c4-2.9,8.7-6.3,10.5-7.3s6.1-4.1,9.5-6.9
	c3.5-2.7,6.7-4.9,7.1-4.9c1.3,0,14.5-10,17.3-13.2C1352.9,794.1,1353.7,794,1356,796.7L1356,796.7z M660.5,950c1.5,1.1,3.6,2,4.7,2
	s4.4,1.2,7.3,2.5c11.2,5.3,18,8.1,19.5,8.1c0.7,0,2.4,0.5,3.7,1.3c4.3,2.4,19.5,8.9,29.6,12.7c5.5,2.1,10.7,4.3,11.3,4.8
	c0.8,0.5,6.1,2.8,12,5.1c5.9,2.4,11.9,4.8,13.3,5.5c16.3,7.5,20.8,9.3,22.4,9.3c0.9,0,2.3,0.5,2.9,1.1c0.8,0.7,4,2.3,7.3,3.5
	c15.5,6,18.7,8,18.7,11.6c0,4-2.4,6.4-10.8,10.3c-5.1,2.4-8.4,2.9-20.8,2.9c-13.2,0-16.1-0.4-29.2-4.8c-8-2.5-17.6-6.1-21.5-8
	c-3.7-1.7-7.3-3.2-7.7-3.2c-2.9,0-42.7-19.6-44.7-22c-0.9-1.1-2.4-2-3.3-2c-2.9,0-17.5-14.4-20.3-20.1c-3.9-8-5.9-16-4.9-19.6
	C651.1,947.5,656.5,946.9,660.5,950L660.5,950z"/>
<path class="st0" d="M984.1,592.8c-8.3,2.5-22.1,9.6-30.7,15.5c-4,2.8-7.7,5.1-8.4,5.1c-0.5,0-5.2,2.9-10.4,6.7
	c-5.2,3.6-9.7,6.7-10.1,6.7s-3.6,2.4-7.1,5.3s-6.8,5.3-7.3,5.3c-0.7,0-4.7,2.4-9.1,5.3c-4.4,2.9-8.5,5.3-9.1,5.3
	c-0.5,0-4.3,3.6-8.4,7.9c-10,10.4-10.1,14.1-1.5,23.1c4.9,5.2,20.4,14.4,24,14.4c0.4,0,2.7,0.8,4.9,1.9c2.4,0.9,10.9,4.3,18.9,7.3
	c8.1,3.1,16.1,6.4,18,7.3s6.9,2.7,11.3,4c4.4,1.2,9.9,2.8,12.1,3.5c5.1,1.6,10.5,1.7,13.6,0.1c1.2-0.7,5.6-1.9,9.6-2.8
	c7.9-1.7,20.7-7.2,22-9.3c0.7-1.2,11.2-8.4,18.3-12.7c6.5-3.9,29.1-19.7,30.4-21.3c0.9-1.1,2.3-2,2.9-2c2,0,15.1-10.1,19.1-14.8
	c5.5-6.7,6.4-9.6,5.3-16.7c-0.7-5.1-2-7.5-6.4-11.7c-5.1-4.9-21.1-14.1-24.7-14.1c-0.8,0-1.6-0.4-1.9-1.1c-0.1-0.5-4.3-2.7-9.1-4.8
	s-11.6-5.2-15.3-6.8C1017.7,591.3,997.1,588.7,984.1,592.8L984.1,592.8z M1017.1,600.8c8,2,15.5,5.1,23.6,9.6
	c1.5,0.8,6.9,3.5,12,5.9c5.2,2.4,9.6,4.8,10,5.2c0.4,0.5,2.5,1.5,4.7,2c10.1,2.5,16.4,9.2,16.5,17.6c0.1,3.6-1.1,5.6-6.7,11.1
	c-3.7,3.6-7.3,6.5-8,6.5c-0.8,0-5.7,2.9-10.9,6.4c-5.3,3.6-10.5,6.8-11.6,7.3c-3.2,1.6-6.7,3.9-17.7,11.2
	c-5.6,3.9-10.8,7.1-11.5,7.1c-0.5,0-2.1,1.2-3.6,2.8c-5.3,5.9-16.4,9.7-29.6,10.3c-11.7,0.5-27.1-1.9-31.6-5.1
	c-0.7-0.4-5.2-2-10-3.3c-4.8-1.3-9.9-3.2-11.3-4c-1.5-0.9-5.3-2.4-8.7-3.3c-3.3-1.1-6.7-2.3-7.5-2.9c-0.8-0.5-5.1-2.3-9.5-3.6
	c-14.9-4.8-18-7.5-17.5-15.1c0.3-4,1.2-6.1,3.1-7.1c5.6-2.9,17.5-11.2,19.2-13.2c0.9-1.2,2.7-2.1,3.6-2.1c1.1,0,1.9-0.7,1.9-1.3
	c0-0.8,0.7-1.3,1.5-1.3c0.8,0,3.2-1.3,5.2-3.1c8.4-6.5,15.6-11.6,16.9-11.6c0.7,0,2.7-1.5,4.4-3.3c1.7-1.9,3.7-3.3,4.7-3.3
	c0.8,0,3.5-1.7,6-4c2.5-2.1,5.1-3.9,5.6-4c0.5,0,4.3-2.1,8.3-4.7s8-4.7,8.9-4.7c0.8,0,3.3-0.8,5.6-1.9c2.4-1.1,5.5-2.3,6.9-2.7
	C994.1,597.1,1007.2,598.4,1017.1,600.8L1017.1,600.8z"/>
<path class="st0" d="M1148,666c-11.2,5.2-16.3,8.1-18.9,10.9c-1.6,1.7-3.6,3.1-4.5,3.1c-0.8,0-2.4,0.9-3.3,2.1
	c-1.1,1.2-6,4.9-11.2,8.3c-5.1,3.3-12.3,8.5-15.9,11.5c-3.7,3.1-7.6,6-8.9,6.8c-10.5,6.3-29.5,23.1-32.4,28.7
	c-0.9,1.9-2.4,4.5-3.5,6.1c-4.7,7.3,3.1,22.1,14,26.5c5.3,2.1,6.7,2.8,20.8,9.2c4.1,1.9,8.1,3.5,8.9,3.5c0.8,0,4.1,1.5,7.2,3.2
	c3.2,1.6,8.8,4.1,12.4,5.5c3.7,1.3,7.3,2.9,8,3.5c3.5,2.5,22.5,9.2,26.4,9.2c2.4,0,5.1,0.7,5.9,1.5c2.7,2.7,25.2-0.8,29.7-4.7
	c1.1-0.9,2.9-2.1,4-2.5c1.1-0.5,5.3-3.5,9.5-6.7c12.5-9.3,27.2-20.1,29.3-21.6c5.1-3.2,13.7-9.6,17.9-13.1c2.4-2,4.8-3.6,5.3-3.6
	c1.7,0,19.3-17.7,19.3-19.5c0-0.8,0.8-2.3,1.9-3.1c2.8-2.4,3.9-10.8,2.1-17.7c-2-7.7-7.9-13.6-17.3-16.9c-16.5-6-18.7-6.8-24.4-10.1
	c-3.3-1.9-6.9-3.3-7.9-3.3s-4.7-1.5-8.4-3.2c-11.5-5.5-16.3-7.5-18.4-7.5c-1.2,0-2.4-0.5-2.9-1.2c-0.4-0.8-3.6-1.7-7.1-2.3
	c-3.5-0.4-6.8-1.3-7.6-1.9c-0.7-0.7-6.7-1.5-13.3-1.9C1155.1,664.1,1151.7,664.4,1148,666L1148,666z M1186.7,677.2
	c4.8,1.6,10.3,3.7,12.3,4.8c1.9,1.1,4.5,2,6,2c1.3,0,3.9,1.2,5.7,2.7c1.9,1.5,3.9,2.7,4.5,2.7c0.5,0,4.8,1.7,9.3,3.9
	c19.3,8.9,23.1,10.7,26.3,11.5c6.5,1.6,10.8,6.3,11.5,12.7c0.5,5.1,0,7.1-3.3,12.3c-3.7,5.6-13.2,13.7-21.6,18.5
	c-1.9,1.1-6.4,4.4-10.3,7.5c-3.7,3.2-7.2,5.7-7.6,5.7s-4.5,2.7-9.1,6c-33.5,24-34.7,24.7-49.5,24.7c-9.9,0-26.4-2.9-29.6-5.3
	c-0.7-0.5-6.7-2.9-13.3-5.5c-6.5-2.4-13.2-5.1-14.7-6c-1.5-0.8-5.1-2.3-8-3.2s-8.9-3.3-13.3-5.3c-4.4-2.1-10.9-4.9-14.7-6.3
	l-6.7-2.5l-0.4-7.5l-0.4-7.6l9.5-10c5.3-5.5,10.8-10.4,12.4-10.9c1.6-0.5,3.6-1.7,4.5-2.7c3.7-3.6,13.3-11.2,14.4-11.2
	c0.5,0,4.1-2.8,8-6.4c9.3-8.5,22.7-18.9,24.4-18.9c0.8,0,1.6-0.4,1.9-1.1c0.3-0.5,3.5-2.5,7.1-4.5c6.3-3.3,7.6-3.6,21.3-3.2
	C1174,674.1,1180.4,675.1,1186.7,677.2L1186.7,677.2z"/>
<path class="st0" d="M791.7,720.7c-14.3,4.9-33.6,14.9-40.1,20.7c-3.3,2.9-6.4,5.3-6.9,5.3s-3.2,1.6-5.9,3.6
	c-2.7,2.1-5.9,4.3-7.1,5.1c-1.2,0.7-5.9,3.9-10.4,6.9c-4.5,3.2-8.5,5.7-8.8,5.7c-0.3,0-7.1,4.5-15.2,10c-8.1,5.5-15.1,10-15.5,10
	s-3.1,1.7-5.9,4c-2.8,2.1-5.6,4-6.3,4c-0.8,0-2.4,1.2-3.7,2.7c-1.3,1.5-6.1,4.7-10.5,7.2c-4.5,2.5-12,8.5-16.8,13.5
	c-8.3,8.4-8.7,9.1-8.7,15.3c0,5.9,0.5,7.1,5.2,11.9c2.9,2.9,7.1,5.7,9.3,6.3c2.3,0.4,4.8,1.3,5.5,1.7c0.8,0.5,3.5,1.9,6,2.8
	c2.5,0.9,6.5,2.4,8.7,3.3c10.4,4.3,15.2,6,21.7,8.3c3.7,1.3,6.9,2.8,6.9,3.3c0,0.4,2,1.3,4.4,1.7c2.3,0.5,4.9,1.5,5.6,2
	c0.8,0.5,4.4,2,8,3.3c3.7,1.3,7.3,2.9,8,3.3c0.8,0.5,3.2,1.3,5.3,1.9c2.3,0.5,6.9,2.4,10.4,4.3c3.6,1.7,7.3,3.2,8.4,3.2
	s2.9,0.5,4.3,1.2c4.4,2.4,12,5.5,13.3,5.5c0.8,0,3.1,0.8,5.2,1.9c5.3,2.8,11.6,5.3,22.4,9.3c5.2,2,10.5,4,12,4.7
	c10,4.4,12.5,5.5,13.7,5.5c0.8,0,3.1,0.8,5.2,1.9c3.2,1.7,7.7,3.6,23.7,10.1c1.5,0.5,5.3,2.1,8.7,3.3c3.3,1.3,7.9,3.2,10.3,4.1
	c2.3,1.1,4.9,1.9,6,1.9s2.4,0.5,3.1,1.1c2.5,2.1,33.7,14.1,42.4,16.4c8.9,2.1,41.3,1.1,47.6-1.7c2.5-1.2,5.6-2.5,6.7-2.9
	c4.4-1.9,17.5-10.1,22.3-14c5.3-4.4,16.1-12.4,19.1-14.1c3.9-2.4,13.3-9.2,18-13.1c2.4-2,4.8-3.6,5.5-3.6c0.5,0,3.9-2.4,7.3-5.3
	c3.5-2.9,6.9-5.3,7.6-5.3c0.7,0,2.1-0.9,3.1-2.1c0.9-1.2,4.8-4.1,8.5-6.5c3.6-2.3,7.9-5.6,9.2-7.2c1.5-1.5,3.2-2.8,3.9-2.8
	c0.8,0,3.3-1.5,5.7-3.3s4.8-3.3,5.5-3.3c0.7,0,5.3-4.3,10.4-9.3l9.3-9.5v-9.1c0-8.1-0.5-10-4-14.9c-5.5-7.7-21.6-19.5-31.6-22.8
	c-2.4-0.8-5.3-2.3-6.5-3.2c-1.1-1.1-3.3-1.9-4.9-1.9c-1.6,0-2.9-0.5-2.9-1.3c0-0.7-2.3-1.6-4.9-2c-2.8-0.4-7.9-2.3-11.3-4.1
	c-3.6-1.7-7.6-3.2-9.1-3.2c-1.5,0-2.7-0.5-2.7-1.2c0-0.7-1.7-1.6-4-2.1c-2.1-0.4-6.3-2-9.1-3.3c-2.8-1.3-6.8-2.9-8.9-3.5
	c-2.1-0.5-5.3-1.7-7.2-2.7c-1.9-1.1-4.4-1.9-5.5-1.9c-1.2,0-2.7-0.5-3.3-1.2c-0.8-0.5-4.3-2.1-8-3.5c-3.6-1.3-7.2-2.9-8-3.5
	c-0.7-0.4-3.5-1.3-6-1.9c-2.5-0.5-5.2-1.3-6-1.9c-0.7-0.5-5.5-2.7-10.7-4.7c-5.1-2-11.1-4.5-13.1-5.6c-2.1-1.1-4.9-1.9-6.4-1.9
	c-1.3,0-2.5-0.5-2.5-1.1c0-0.7-3.7-2.3-8.3-3.6c-4.5-1.3-9.9-3.2-11.7-4.1c-6.5-3.3-13.1-5.9-14.9-5.9c-1.1,0-2.4-0.5-3.2-1.2
	c-0.7-0.5-4.1-2.1-7.9-3.5c-3.6-1.3-7.2-2.9-8-3.3c-0.7-0.5-3.1-1.3-5.3-1.9c-2.1-0.5-6.9-2.3-10.7-4c-12.5-6-20.4-7.5-38.8-7.3
	C803.5,717.5,799.2,718,791.7,720.7L791.7,720.7z M840.4,724.8c4.5,1.2,11.9,3.9,16.3,5.9s11.3,5.1,15.3,6.7c4,1.6,9.2,3.9,11.6,4.8
	c2.3,1.1,4.7,1.9,5.3,1.9c0.7,0,3.6,1.2,6.5,2.5c2.9,1.5,6.9,3.1,8.9,3.5c2,0.5,3.6,1.5,3.6,2c0,0.7,1.9,1.5,4,2
	c2.3,0.5,5.7,1.7,7.7,2.7s9.3,3.9,16.3,6.5c6.9,2.8,14.3,5.9,16.3,6.8c1.9,1.1,4.4,2,5.5,2c1.2,0,3.7,0.8,5.9,1.9
	c8.4,4.3,18.8,8.8,20.3,8.8c0.8,0,2.5,0.5,3.9,1.2c4,2.3,17.9,8.1,19.1,8.1c0.5,0,4.9,1.7,9.6,4c4.8,2.1,9.3,4,10.1,4
	c0.8,0,2.5,0.5,3.9,1.2c5.3,2.9,20.1,9.3,26.3,11.5c8.7,2.9,20.7,8.9,20.7,10.3c0,0.5,0.8,1.1,1.7,1.1c2.1,0,12.9,10.9,12.9,13.1
	c0,0.9,0.7,1.6,1.3,1.6c0.8,0,1.3,2.9,1.3,6.7c0,3.6-0.5,6.7-1.3,6.7c-0.7,0-1.3,0.9-1.3,2c0,1.6-10.7,9.6-16.7,12.7
	c-0.8,0.4-5.2,3.3-9.9,6.7c-4.7,3.3-9.5,6.5-10.7,7.3c-1.2,0.7-2.4,1.6-2.8,2c-2.1,2.1-12,9.3-12.8,9.3c-0.5,0-5.1,2.9-10.1,6.7
	c-5.1,3.6-9.5,6.7-10,6.7c-0.5,0-3.7,2.4-7.2,5.3c-3.5,2.9-6.7,5.3-7.1,5.3s-4.7,2.8-9.5,6.3c-4.9,3.6-9.9,6.9-11.1,7.7
	c-1.3,0.7-4.5,3.1-7.2,5.1c-12.7,9.7-20.9,11.9-43.1,11.2c-9.5-0.3-19.3-0.8-21.9-1.3c-4-0.8-23.2-7.3-30.1-10.4
	c-1.5-0.5-6-2.5-10.1-4.4c-4.1-1.7-9.6-3.6-12-4.1c-2.4-0.5-5.3-1.5-6.5-2.1c-5.5-2.9-17.6-7.7-21.5-8.5c-2.5-0.5-5.7-1.7-7.2-2.7
	c-1.5-1.1-5.3-2.5-8.7-3.5c-3.3-0.9-7.2-2.4-8.7-3.2c-1.5-0.9-5.3-2.4-8.7-3.3c-3.3-1.1-7.2-2.7-8.7-3.6c-1.5-0.9-3.9-1.7-5.6-1.7
	c-1.6,0-3.2-0.5-3.7-1.2c-0.4-0.7-3.9-2.3-7.7-3.5c-3.7-1.2-8.4-2.9-10.3-3.9s-6-2.5-9.3-3.5c-3.3-1.1-7.2-2.7-8.7-3.6
	s-3.9-1.7-5.6-1.7c-1.6,0-3.2-0.5-3.6-1.2c-0.5-0.7-4.3-2.3-8.5-3.6c-4.1-1.2-8.3-2.8-9.1-3.5c-0.8-0.5-5.1-2.3-9.5-3.6
	c-4.5-1.5-9.2-3.2-10.5-3.9c-1.5-0.7-5.5-2.3-9.2-3.6c-3.6-1.2-10.5-3.7-15.3-5.6c-4.8-1.9-11.3-4.3-14.7-5.3
	c-14.1-4.7-21.3-9.9-21.3-15.2c0-4.3,12.8-19.1,17.7-20.7c1.6-0.5,5.3-2.9,8.1-5.3c2.9-2.5,5.9-4.5,6.7-4.5c0.8-0.1,3.6-1.9,6.1-4
	c2.5-2.3,5.2-4,6-4c0.9,0,2.9-1.5,4.7-3.3c1.7-1.9,3.7-3.3,4.4-3.3s3.5-1.9,6.3-4c2.8-2.3,5.5-4,5.9-4s4.9-2.8,9.9-6.4
	c5.1-3.5,10.1-6.9,11.3-7.6c6.3-3.9,22.5-15.3,28.9-20.7c7.9-6.5,31.2-18.7,42-21.9C804.7,722,829.7,722,840.4,724.8L840.4,724.8z"
	/>
<path class="st0" d="M793.5,760.1c-2.4,0.7-5.1,1.9-6,2.5c-7.9,6.4-10,8-11.2,8c-0.7,0-4.8,2.5-9.1,5.7
	c-12.8,9.2-18.5,12.9-20.1,12.9c-0.8,0-2.3,0.9-3.2,2.1c-2,2.4-15.3,11.5-21.6,14.8c-2.3,1.1-7.3,5.3-11.2,9.3
	c-8.8,9.1-9.2,12.7-2.3,20.4c2.7,2.9,6.9,6.3,9.3,7.3c2.5,1.1,6.5,2.9,9.1,4c2.5,1.1,5.2,2,5.9,2c0.8,0,3.1,0.9,5.2,2
	c2,1.1,10,4.4,17.7,7.3c14.5,5.7,16.1,6.4,24.3,9.9c2.7,1.2,5.6,2.1,6.7,2.1s2.4,0.5,3.2,1.1c0.7,0.7,4.3,2.3,7.9,3.5
	c3.7,1.3,8.5,3.2,10.9,4.3c2.3,1.1,4.8,1.9,5.5,1.9c0.8,0,3.1,0.9,5.2,2c6.9,3.6,18.9,8.7,20.4,8.7c0.7,0,2.4,0.5,3.7,1.2
	c4.4,2.4,12,5.5,13.3,5.5c0.7,0,3.1,0.9,5.1,2c2.1,1.1,4.8,2,6,2c1.1,0,2.5,0.5,3.3,1.1c0.7,0.7,5.5,2.8,10.5,4.8
	c5.2,2,11.2,4.4,13.3,5.5c2.3,0.9,6.3,2.7,9.1,3.9c6.5,2.9,24.9,4.1,34.5,2.3c9.5-1.7,20.8-7.2,28.3-13.5c3.1-2.5,6.5-5.3,7.6-6
	c1.2-0.8,6.8-4.8,12.4-9.1c5.6-4.1,10.7-7.6,11.3-7.6s1.5-0.4,1.7-1.1c0.5-1.3,15.3-13.6,16.4-13.6c2.4,0,13.1-8.7,16-13.1
	c4.7-6.9,4.3-11.2-1.6-17.9c-5.2-5.6-16.1-11.7-21.3-11.7c-1.6,0-3.2-0.5-3.6-1.1c-0.4-0.7-6-3.2-12.4-5.6s-14.4-5.5-17.6-6.9
	c-3.3-1.5-8-2.9-10.4-3.3c-2.4-0.4-4.4-1.2-4.4-1.6c0-0.5-3.7-2.1-8.3-3.5c-4.7-1.3-9.6-3.2-11.1-4c-1.5-0.9-5.3-2.4-8.7-3.3
	c-3.3-1.1-6.7-2.3-7.5-2.9c-0.8-0.5-4.9-2.3-9.3-3.6c-10.8-3.6-16.9-6-18.8-7.2c-0.8-0.5-5.3-2.1-9.9-3.6c-4.5-1.5-8.9-3.2-9.7-3.7
	c-0.8-0.7-4.1-1.9-7.5-2.8c-3.3-0.9-7.3-2.5-8.9-3.6c-1.6-0.9-5.2-2.4-8-3.1c-2.8-0.8-8.7-2.7-13.1-4.3c-6.3-2.1-11.7-2.9-25.3-3.3
	C805.7,758.9,796,759.3,793.5,760.1L793.5,760.1z M832.8,766.4c0.7,0.7,4.8,2.3,9.2,3.6c7.9,2.4,9.7,3.1,22.3,8.5
	c3.5,1.6,6.8,2.8,7.2,2.8c0.4,0,2.7,0.8,4.9,1.9c2.4,0.9,6.9,2.8,10.3,4.1c3.3,1.3,8.9,3.7,12.4,5.5c3.6,1.7,7.1,3.2,7.9,3.2
	c2,0,20.3,7.3,34.4,13.6c4,1.9,9.5,3.9,12,4.4c2.5,0.5,5.3,1.5,6,2c0.8,0.5,5.6,2.7,10.7,4.7c5.2,1.9,12.4,4.9,16,6.5
	c3.7,1.7,10.1,4.1,14.3,5.5c4.3,1.3,8.4,3.2,9.2,4.1c0.8,1.1,3.1,1.9,4.9,1.9c4.3,0,9.6,4.8,9.6,8.7c0,3.1-5.7,9.1-14,14.5
	c-2.9,1.9-9.1,6.1-13.7,9.5c-4.7,3.3-8.9,6-9.5,6c-0.7,0-1.9,0.9-2.8,2c-3.3,4.1-32.9,24.3-38.7,26.4c-3.6,1.3-10,2.3-15.7,2.3
	c-9.9,0-27.9-3.3-30.1-5.5c-0.8-0.7-2.8-1.2-4.7-1.2c-2,0-4.7-0.9-6-2c-1.5-1.1-3.7-2-4.9-2c-1.3,0-4-0.8-6.1-1.9
	c-5.3-2.8-16.3-7.5-17.2-7.5c-0.4,0-2.7-0.8-4.9-1.9c-2.4-1.1-7.6-2.9-11.6-4.1c-4-1.3-8.8-3.1-10.7-4c-1.9-0.8-6-2.4-9.3-3.3
	c-3.3-1.1-6.7-2.3-7.3-2.8c-1.3-0.9-10.7-4.4-31.2-11.3c-9.5-3.2-18.4-6.7-27.7-10.7c-2.3-1.1-5.1-1.9-6.1-1.9
	c-1.2,0-2.4-0.5-2.9-1.2c-0.4-0.7-6.7-3.2-14-5.6c-20.8-6.8-27.2-13.9-18.9-21.3c3.6-3.5,17.2-13.2,18.1-13.2
	c0.8,0,13.6-8.9,22.3-15.5c4-2.9,8.7-6.3,10.5-7.3c1.7-1.1,7.5-4.9,12.7-8.5c5.2-3.7,10.7-7.3,12.1-8.3
	C794.4,765.2,830.7,764.7,832.8,766.4L832.8,766.4z"/>
</svg>
